<svg width="64" height="64" xmlns="http://www.w3.org/2000/svg"><g fill="none" stroke="#78911e" stroke-opacity=".953"><path d="M23.175 20.062l-3.545-4.064M25.942 19.803l-2.594-6.486" style="-inkscape-stroke:none;font-variation-settings:normal"/><path d="M28.104 19.716l.173-9.512"/><path d="M30.439 19.716l3.286-6.313M36.924 15.911l-3.805 4.064M12.535 56.377v-6.481M14.675 55.949l2.079-3.485M17.06 56.132l1.834-1.834M10.823 56.255l-1.468-4.158M8.683 56.132L6.42 53.686M49.406 47.083l.061-7.705M51.118 47.022l2.63-4.892M53.992 46.838l2.874-2.996M46.716 46.594l-1.957-5.014M44.637 47.266l-2.996-3.302" style="-inkscape-stroke:none;font-variation-settings:normal"/></g></svg>