<svg xmlns="http://www.w3.org/2000/svg" width="100" height="100"><path fill="#e9ffe5" fill-opacity=".733" d="M-3.03-3.03h106.061v106.06H-3.03z"/><path d="M22.727 86.014a8.741 8.741 0 01-8.74 8.741 8.741 8.741 0 01-8.742-8.741 8.741 8.741 0 018.741-8.741 8.741 8.741 0 018.741 8.741zM76.923 75.525a8.741 8.741 0 01-8.741 8.74 8.741 8.741 0 01-8.741-8.74 8.741 8.741 0 018.741-8.742 8.741 8.741 0 018.741 8.742zM34.965 16.084a8.741 8.741 0 01-8.741 8.741 8.741 8.741 0 01-8.741-8.741 8.741 8.741 0 018.74-8.741 8.741 8.741 0 018.742 8.741zM71.678 12.588a8.741 8.741 0 01-8.74 8.74 8.741 8.741 0 01-8.742-8.74 8.741 8.741 0 018.741-8.742 8.741 8.741 0 018.741 8.742zM94.406 37.063a8.741 8.741 0 01-8.741 8.741 8.741 8.741 0 01-8.742-8.74 8.741 8.741 0 018.742-8.742 8.741 8.741 0 018.74 8.741zM41.958 52.797a8.741 8.741 0 01-8.741 8.742 8.741 8.741 0 01-8.741-8.742 8.741 8.741 0 018.74-8.74 8.741 8.741 0 018.742 8.74z" fill="#fc7070" fill-opacity=".659"/></svg>