<svg width="110" height="120" version="1.1" viewBox="0 0 29.1 31.8" xmlns="http://www.w3.org/2000/svg">
 <g transform="translate(0 -265)">
  <rect x=".0472" y="265" width="29.1" height="31.8" fill="#b1de76" fill-opacity=".8"/>
 </g>
 <g fill="none" stroke="#428f34">
  <path d="m4.16 5.21v1.59" stroke-width=".265px"/>
  <path d="m3.87 6.96.0143.933h.531l.0287-1.05" stroke-width=".265px"/>
  <path d="m3.9 7.33s-1.91.0431-1.89-.631c.0134-.673-.43-1.72.646-1.78.955-.0536.647-.399.732-.674.0143.115-.172-.674.66-.674.677 0 .593.789.66.789.302.506.362 1.1.387 1.89 0 0-.0922.26-.172.473 0 0-.273.603-1.02.603z" stroke-width=".265"/>
  <g transform="translate(16.2 1.71)">
   <path d="m4.16 5.21v1.59" stroke-width=".265px"/>
   <path d="m3.87 6.96.0143.933h.531l.0287-1.05" stroke-width=".265px"/>
   <path d="m3.9 7.33s-1.91.0431-1.89-.631c.0134-.673-.43-1.72.646-1.78.955-.0536.647-.399.732-.674.0143.115-.172-.674.66-.674.677 0 .593.789.66.789.302.506.362 1.1.387 1.89 0 0-.0922.26-.172.473 0 0-.273.603-1.02.603z" stroke-width=".265"/>
  </g>
  <g transform="translate(8.22 8.89)">
   <path d="m4.16 5.21v1.59" stroke-width=".265px"/>
   <path d="m3.87 6.96.0143.933h.531l.0287-1.05" stroke-width=".265px"/>
   <path d="m3.9 7.33s-1.91.0431-1.89-.631c.0134-.673-.43-1.72.646-1.78.955-.0536.647-.399.732-.674.0143.115-.172-.674.66-.674.677 0 .593.789.66.789.302.506.362 1.1.387 1.89 0 0-.0922.26-.172.473 0 0-.273.603-1.02.603z" stroke-width=".265"/>
  </g>
  <g transform="translate(20.7 14.8)">
   <path d="m4.16 5.21v1.59" stroke-width=".265px"/>
   <path d="m3.87 6.96.0143.933h.531l.0287-1.05" stroke-width=".265px"/>
   <path d="m3.9 7.33s-1.91.0431-1.89-.631c.0134-.673-.43-1.72.646-1.78.955-.0536.647-.399.732-.674.0143.115-.172-.674.66-.674.677 0 .593.789.66.789.302.506.362 1.1.387 1.89 0 0-.0922.26-.172.473 0 0-.273.603-1.02.603z" stroke-width=".265"/>
  </g>
  <g transform="translate(5.74 19.5)">
   <path d="m4.16 5.21v1.59" stroke-width=".265px"/>
   <path d="m3.87 6.96.0143.933h.531l.0287-1.05" stroke-width=".265px"/>
   <path d="m3.9 7.33s-1.91.0431-1.89-.631c.0134-.673-.43-1.72.646-1.78.955-.0536.647-.399.732-.674.0143.115-.172-.674.66-.674.677 0 .593.789.66.789.302.506.362 1.1.387 1.89 0 0-.0922.26-.172.473 0 0-.273.603-1.02.603z" stroke-width=".265"/>
  </g>
 </g>
 <rect x=".0472" y=".0472" width="29.1" height="31.6" fill="#b6f137" fill-opacity=".302"/>
</svg>
