<?xml version='1.0' encoding='utf-8'?>
<svg xmlns:dc="http://purl.org/dc/elements/1.1/" xmlns:cc="http://creativecommons.org/ns#" xmlns:rdf="http://www.w3.org/1999/02/22-rdf-syntax-ns#" xmlns="http://www.w3.org/2000/svg" id="svg2" width="18" height="18" viewBox="0 0 18 18" version="1.1">
  <metadata id="metadata8">
    <rdf:RDF>
      <cc:Work rdf:about="">
        <dc:format>image/svg+xml</dc:format>
        <dc:type rdf:resource="http://purl.org/dc/dcmitype/StillImage"/>
        <dc:title/>
      </cc:Work>
    </rdf:RDF>
  </metadata>
  <defs id="defs6"/>
  <path style="fill:#ffffff;stroke:#ffffff;stroke-width:2.0;opacity:1.0;" id="halo" d="M 7,0.25 C 6.625,0.25 6.25,0.5 6.25,1 l 0,13 1.5,0 0,-13 C 7.75,0.5 7.375,0.25 7,0.25 Z M 2,1 0,2.5 2,4 10,4 10,1 Z m 2,4.0084746 0,3 8,0 2,-1.5 -2,-1.5 z" transform="translate(2.0,2.0)"/>
<path style="fill:#000000;fill-opacity:1" id="guidepost" d="M 7,0.25 C 6.625,0.25 6.25,0.5 6.25,1 l 0,13 1.5,0 0,-13 C 7.75,0.5 7.375,0.25 7,0.25 Z M 2,1 0,2.5 2,4 10,4 10,1 Z m 2,4.0084746 0,3 8,0 2,-1.5 -2,-1.5 z" transform="translate(2.0,2.0)"/>
</svg>
