<svg xmlns="http://www.w3.org/2000/svg" width="20" height="20"><path d="M15.086 3.308v6.048l1.615 9.486a.942.942 0 01-.212.804.966.966 0 01-.767.354h-1.52a.98.98 0 01-.98-.827l-.2-1.122-3.019-2.457-3.03 2.457-.19 1.122a.988.988 0 01-.978.827H4.284a.966.966 0 01-.767-.354.988.988 0 01-.224-.804L4.91 9.356V3.308H4.72c-.542 0-.99-.461-.99-1.004v-1.3A1 1 0 014.72 0h10.554c.554 0 1.003.449 1.003 1.004v1.3a1.01 1.01 0 01-1.003 1.004z" fill="#fff" fill-rule="evenodd"/><path d="M4.717.998h10.555v1.3h-1.18v7.135l1.627 9.569H14.2l-.249-1.5-.011.011L10 14.288l-3.95 3.225v-.012l-.248 1.5H4.28l1.627-9.568V2.298H4.717zm8.88 14.46l-.614-3.592-1.898 1.548zm-.873-5.15L12.665 10h-5.33l-.059.307L10 12.528zm-5.707 1.558l-.614 3.592 2.512-2.044z" fill-rule="evenodd"/><path d="M7.283 6.583h5.366V2.366H7.283z" fill="#fff" fill-rule="evenodd"/></svg>