<svg xmlns="http://www.w3.org/2000/svg" height="580" width="580"><path d="M145 464v87h290v-87h-87V348l29 14.854c58-14.85 116-72.85 116-159.85s-58-145-116-159.85c-29 .55-58 72.85-58 101.85h-58c0-29-29-101.41-58-101.85-58 14.85-116 72.85-116 159.85s58 145 116 159.85l29-14.85v116z" fill-rule="evenodd" fill="#f1eee9"/><g fill="#555"><path d="M203 69.781c-51.25 22.601-87.91 73.829-87.91 133.22 0 59.389 36.656 110.62 87.906 133.22V302.69c-34.67-20.033-58-56.531-58-99.687s23.33-79.655 58-99.688V69.784zM377 69.781v33.531c34.67 20.033 58 56.531 58 99.688 0 43.156-23.33 79.655-58 99.687v33.531c51.25-22.6 87.906-73.83 87.906-133.22 0-59.389-36.656-110.62-87.906-133.22z"/><path d="M232 121.44c-33.554 12.089-58 43.959-58 81.563 0 37.603 24.446 69.474 58 81.562v-31.719c-17.31-9.99-29-28.28-29-49.84 0-21.564 11.689-39.847 29-49.844v-31.719zM348 121.44v31.719c17.311 9.997 29 28.28 29 49.844s-11.689 39.847-29 49.844v31.719c33.554-12.089 58-43.959 58-81.562s-24.446-69.474-58-81.563z"/></g><path d="M261 203v261c0 29 0 29-29 29h-58v29h232v-29h-58c-29 0-29 0-29-29V203c0-29-22.22-29-29-29-6.776 0-29 0-29 29z" fill="#4c4c4c"/></svg>