<svg height="580" width="580" xmlns="http://www.w3.org/2000/svg"><g fill="none"><path d="m556.36 242.65c-27.13-.43-54.27-.86-81.4-1.29-77.91 77.91-155.81 155.81-233.72 233.72v81.41m96.09-532.857c.44 27.136.87 54.267 1.31 81.407-77.91 77.91-155.81 155.82-233.72 233.72-27.141 0-54.271 0-81.408 0" opacity=".8" stroke="#fff" stroke-linejoin="round" stroke-width="128"/><g stroke="#780000" stroke-width="63.23"><path d="m337.33 23.633c.44 27.136.87 54.267 1.31 81.407-77.91 77.91-155.81 155.82-233.72 233.72-27.141 0-54.271 0-81.408 0"/><path d="m556.36 242.65c-27.13-.43-54.27-.86-81.4-1.29-77.91 77.91-155.81 155.81-233.72 233.72v81.41"/></g></g></svg>