<svg height="580" width="580" xmlns="http://www.w3.org/2000/svg"><g fill="none"><path d="m512.73 445.56c-18.88-19.49-37.77-38.99-56.65-58.47-110.18 0-220.35 0-330.53 0-19.18 19.18-38.375 38.37-57.566 57.56m444.736-308.84c-18.88 19.5-37.76 38.99-56.64 58.49-110.18 0-220.36 0-330.53 0-19.19-19.19-38.376-38.38-57.565-57.56" opacity=".8" stroke="#fff" stroke-linejoin="round" stroke-width="128"/><g stroke="#780000" stroke-width="63.23"><path d="m512.72 135.81c-18.88 19.5-37.76 38.99-56.64 58.49-110.18 0-220.36 0-330.53 0-19.19-19.19-38.376-38.38-57.565-57.56"/><path d="m512.73 445.56c-18.88-19.49-37.77-38.99-56.65-58.47-110.18 0-220.35 0-330.53 0-19.18 19.18-38.375 38.37-57.566 57.56"/></g></g></svg>