<svg width="32" height="28" version="1.1" viewBox="0 0 32 28" xmlns="http://www.w3.org/2000/svg">
 <g>
  <g transform="translate(-49 -171.09)" fill="#ff0000" stroke="#ffffff" stroke-width="2">
   <path d="m65 175-10 5.9938v17.006h20v-16.911z"/>
   <path d="m65 172-.93126.608-13.069 8.128a1.8875 1.8865 0 101.8936 3.264l12.137-7.52 12.075 7.488a1.9013 1.9004 0 001.8936-3.296l-13.007-8.064z" color="#000000" style="text-decoration-line:none;text-indent:0;text-transform:none"/>
  </g>
  <g transform="translate(-49 -171.18)" fill="#ff0000">
   <path d="m65 175-10 5.9938v17.006h20v-16.911z"/>
   <path d="m65 172-.93126.608-13.069 8.128a1.8875 1.8865 0 101.8936 3.264l12.137-7.52 12.075 7.488a1.9013 1.9004 0 001.8936-3.296l-13.007-8.064z" color="#000000" style="text-decoration-line:none;text-indent:0;text-transform:none"/>
  </g>
  <g transform="matrix(1.0969 0 0 1.0969 -100.36 -559.73)" fill="#ffffff" stroke="#ffffff" stroke-width=".27351">
   <path d="m106.06 529.38c.52582-.0208.87414-.17915 1.045-.47499.17082-.29581.24916-.60414.235-.92499-.0129-.23257-.10717-.71849-.28296-1.4578-.17581-.73923-.35605-1.4563-.54073-2.1511-.1847-.69479-.2968-1.0918-.3363-1.1911l.08-.08c.15249.21252.68749.76751 1.605 1.665.91748.89751 1.5425 1.4625 1.875 1.695.33415.19085.68581.27918 1.055.265.36915-.0142.67082-.19582.90499-.545.32749-.5883.40248-1.0216.225-1.3-.17751-.27831-.41251-.47164-.70499-.57999-.18322-.0795-.65235-.22714-1.4074-.44296-.75506-.21578-1.4968-.42269-2.2252-.62073-.72839-.198-1.1442-.3101-1.2474-.33629v-.08c.11283-.0111.51826-.10442 1.2163-.28.69801-.17553 1.4116-.36664 2.1407-.57333.72911-.20664 1.1968-.36219 1.4029-.46666.33665-.17497.57332-.40497.70999-.68999.13665-.28497.0733-.65496-.19-1.11-.22834-.35331-.50167-.55664-.81999-.61-.31834-.0533-.63166.003-.93998.17-.33501.23669-.975.81335-1.92 1.73-.94499.91668-1.505 1.4733-1.68 1.67l-.08-.08c.0395-.0997.1516-.50022.3363-1.2015.18468-.7012.36492-1.4246.54073-2.1703.17579-.74564.27011-1.235.28296-1.4681.009-.42247-.0792-.74746-.265-.97499-.18584-.22746-.52416-.34246-1.015-.34499-.45584.01-.78417.14003-.98499.38999-.20084.25003-.29917.56003-.295.92999.0136.19558.11086.66669.29185 1.4133.18098.74668.36419 1.4756.54962 2.1866.18543.71112.2916 1.1111.31852 1.2l-.08.08c-.15501-.18998-.705-.71997-1.65-1.59-.94499-.86996-1.595-1.42-1.95-1.65-.31249-.1783-.64749-.26164-1.005-.25-.3575.0117-.6625.22836-.91499.65-.2175.42418-.2425.78584-.075 1.085.1675.29919.39249.51085.67499.63499.19506.0785.66715.21928 1.4163.42222.74912.20298 1.4849.39705 2.2074.58221.72245.18521 1.1412.29039 1.2563.31556v.08c-.12618.0126-.54049.11631-1.243.3111-.70246.19484-1.416.4052-2.1407.6311-.72469.22595-1.1834.39187-1.3763.49778-.2025.10168-.4175.30835-.64499.61999-.2275.31168-.2125.71834.045 1.22.22999.35335.51999.54668.86999.58.34999.0334.69999-.0533 1.05-.26.2925-.21831.86749-.75164 1.725-1.6.85748-.8483 1.4425-1.4216 1.755-1.72h.08c-.0269.1015-.13309.50742-.31852 1.2178-.18543.71038-.36864 1.4363-.54962 2.1778-.18099.74149-.27827 1.2096-.29185 1.4044-.004.37335.0942.69667.295.96999.20082.27334.52915.41667.98499.42999z" fill="#ffffff" stroke="#ffffff" stroke-width=".27351"/>
  </g>
 </g>
</svg>
