<svg width="25.9" height="24.8" version="1.1" viewBox="0 0 6.84 6.55" xmlns="http://www.w3.org/2000/svg" xmlns:xlink="http://www.w3.org/1999/xlink">
 <defs>
  <radialGradient id="radialGradient5272" cx="869" cy="661" r="16.4" gradientTransform="matrix(.193 0 0 .184 -164 172)" gradientUnits="userSpaceOnUse">
   <stop stop-color="#ffff00" offset="0"/>
   <stop stop-color="#ffca00" offset=".776"/>
   <stop stop-color="#ff9500" offset="1"/>
  </radialGradient>
 </defs>
 <g transform="translate(-.0275 -290)">
  <path d="m3.45 290c0.438 3e-3 0.65 1.69 1 1.95 0.351 0.255 2.01-0.0715 2.15 0.342 0.133 0.417-1.4 1.14-1.54 1.56-0.134 0.413 0.69 1.89 0.337 2.15-0.356 0.255-1.52-0.984-1.96-0.984-0.434 0-1.59 1.24-1.94 0.984-0.353-0.26 0.466-1.75 0.331-2.16-0.134-0.413-1.67-1.13-1.53-1.54 0.138-0.416 1.81-0.0967 2.16-0.354 0.351-0.255 0.554-1.94 0.989-1.93z" fill="#4d4d4d" stroke="#000000" stroke-width=".529"/>
  <path d="m3.45 290c0.438 3e-3 0.65 1.69 1 1.95 0.351 0.255 2.01-0.0715 2.15 0.342 0.133 0.417-1.4 1.14-1.54 1.56-0.134 0.413 0.69 1.89 0.337 2.15-0.356 0.255-1.52-0.984-1.96-0.984-0.434 0-1.59 1.24-1.94 0.984-0.353-0.26 0.466-1.75 0.331-2.16-0.134-0.413-1.67-1.13-1.53-1.54 0.138-0.416 1.81-0.0967 2.16-0.354 0.351-0.255 0.554-1.94 0.989-1.93z" fill="url(#radialGradient5272)"/>
 </g>
</svg>
