<?xml version="1.0" encoding="UTF-8" standalone="no"?>
<!-- Created with Inkscape (http://www.inkscape.org/) -->

<svg
   xmlns:dc="http://purl.org/dc/elements/1.1/"
   xmlns:cc="http://creativecommons.org/ns#"
   xmlns:rdf="http://www.w3.org/1999/02/22-rdf-syntax-ns#"
   xmlns:svg="http://www.w3.org/2000/svg"
   xmlns="http://www.w3.org/2000/svg"
   xmlns:sodipodi="http://sodipodi.sourceforge.net/DTD/sodipodi-0.dtd"
   xmlns:inkscape="http://www.inkscape.org/namespaces/inkscape"
   width="32"
   height="28"
   viewBox="0 0 8.4666665 7.4083338"
   version="1.1"
   id="svg3678"
   inkscape:version="0.92.4 (5da689c313, 2019-01-14)"
   sodipodi:docname="s_bus_station-src.svg">
  <defs
     id="defs3672">
    <pattern
       y="0"
       x="0"
       height="6"
       width="6"
       patternUnits="userSpaceOnUse"
       id="EMFhbasepattern" />
  </defs>
  <sodipodi:namedview
     id="base"
     pagecolor="#ffffff"
     bordercolor="#666666"
     borderopacity="1.0"
     inkscape:pageopacity="0.0"
     inkscape:pageshadow="2"
     inkscape:zoom="11.75"
     inkscape:cx="-5.6257428"
     inkscape:cy="14"
     inkscape:document-units="px"
     inkscape:current-layer="layer1"
     showgrid="false"
     units="px"
     inkscape:pagecheckerboard="true"
     inkscape:window-width="1300"
     inkscape:window-height="827"
     inkscape:window-x="204"
     inkscape:window-y="74"
     inkscape:window-maximized="0"
     fit-margin-top="0"
     fit-margin-left="0"
     fit-margin-right="0"
     fit-margin-bottom="0" />
  <metadata
     id="metadata3675">
    <rdf:RDF>
      <cc:Work
         rdf:about="">
        <dc:format>image/svg+xml</dc:format>
        <dc:type
           rdf:resource="http://purl.org/dc/dcmitype/StillImage" />
        <dc:title></dc:title>
      </cc:Work>
    </rdf:RDF>
  </metadata>
  <g
     inkscape:label="Layer 1"
     inkscape:groupmode="layer"
     id="layer1"
     transform="translate(-0.52149445,-288.89075)"
     style="display:inline">
    <g
       style="display:inline;fill:#1279ff;fill-opacity:1;stroke:#ffffff;stroke-width:2.00002098;stroke-miterlimit:4;stroke-dasharray:none"
       id="g5259"
       transform="matrix(0.26458334,0,0,0.26457778,-12.444656,243.62532)">
      <path
         style="display:inline;fill:#1279ff;fill-opacity:1;fill-rule:nonzero;stroke:#ffffff;stroke-width:2.00002098;stroke-miterlimit:4;stroke-dasharray:none"
         d="m 65,175.00368 -10,5.99396 v 17.00652 h 20 v -16.91137 z"
         id="path5261"
         inkscape:connector-curvature="0"
         sodipodi:nodetypes="cccccc" />
      <path
         inkscape:connector-curvature="0"
         id="path5263"
         d="M 65,172.00361 64.068737,172.61163 51,180.73979 a 1.8874864,1.8865439 0 1 0 1.89357,3.26407 l 12.137473,-7.52015 12.075387,7.48816 A 1.9013553,1.9004059 0 0 0 79,180.67579 l -13.006651,-8.06416 z"
         style="color:#000000;font-style:normal;font-variant:normal;font-weight:normal;font-stretch:normal;font-size:medium;line-height:normal;font-family:Sans;-inkscape-font-specification:Sans;text-indent:0;text-align:start;text-decoration:none;text-decoration-line:none;letter-spacing:normal;word-spacing:normal;text-transform:none;writing-mode:lr-tb;direction:ltr;baseline-shift:baseline;text-anchor:start;display:inline;overflow:visible;visibility:visible;fill:#1279ff;fill-opacity:1;stroke:#ffffff;stroke-width:2.00002098;stroke-miterlimit:4;stroke-dasharray:none;marker:none;enable-background:accumulate" />
    </g>
    <path
       id="path818"
       d="m 4.7548278,289.938 -2.6458137,1.56632 v 4.50847 h 5.2916275 v -4.46614 z"
       style="display:inline;fill:#1279ff;fill-opacity:1;fill-rule:nonzero;stroke:none;stroke-width:0.26458335"
       inkscape:connector-curvature="0" />
    <path
       id="path820"
       d="M 4.7551593,289.13367 4.5011612,289.303 1.05102,291.44082 c -0.57149571,0.33866 -0.084666,1.20649 0.4868298,0.86783 l 3.2173095,-1.98966 3.1961432,1.98966 c 0.5926622,0.31749 1.0794918,-0.55033 0.5079961,-0.889 L 5.0091575,289.303 Z"
       style="display:inline;fill:#1279ff;fill-opacity:1;fill-rule:nonzero;stroke:none;stroke-width:0.26458335"
       inkscape:connector-curvature="0" />
    <path
       sodipodi:nodetypes="ccccccccccccccccccccccccssssssssss"
       style="color:#000000;display:inline;overflow:visible;visibility:visible;fill:#ffffff;fill-opacity:1;fill-rule:nonzero;stroke:none;stroke-width:0.5291667;marker:none;enable-background:accumulate"
       d="m 3.9562063,291.35245 v 0.24526 H 3.4725479 c -0.1208881,0 -0.2418027,0.12263 -0.2418027,0.24526 v 3.18843 h 0.2418027 v 0.5256 h 0.536284 v -0.5256 h 1.5875265 v 0.5256 h 0.536284 v -0.5256 h 0.2418027 v -3.18843 c 0,-0.12263 -0.1209146,-0.24526 -0.2418027,-0.24526 H 5.6489841 v -0.24526 z m -0.2418027,0.73579 h 2.1763832 v 1.22632 H 3.7144036 Z m 0.2418027,1.9621 c 0.1339586,0 0.2418027,0.10939 0.2418027,0.24526 0,0.13588 -0.1078441,0.24527 -0.2418027,0.24527 -0.1339321,0 -0.2418027,-0.10939 -0.2418027,-0.24527 0,-0.13587 0.1078706,-0.24526 0.2418027,-0.24526 z m 1.6927778,0 c 0.1339585,0 0.2418027,0.10939 0.2418027,0.24526 0,0.13588 -0.1078442,0.24527 -0.2418027,0.24527 -0.1339586,0 -0.2418028,-0.10939 -0.2418028,-0.24527 0,-0.13587 0.1078442,-0.24526 0.2418028,-0.24526 z"
       id="path8522-6-8"
       inkscape:connector-curvature="0" />
  </g>
</svg>
