<?xml version="1.0" encoding="UTF-8" standalone="no"?>
<!-- Created with Inkscape (http://www.inkscape.org/) -->

<svg
   width="28"
   height="28"
   viewBox="0 0 7.4083332 7.4083338"
   version="1.1"
   id="svg3678"
   inkscape:version="1.1.1 (3bf5ae0d25, 2021-09-20)"
   sodipodi:docname="s_bus-LE.svg"
   xmlns:inkscape="http://www.inkscape.org/namespaces/inkscape"
   xmlns:sodipodi="http://sodipodi.sourceforge.net/DTD/sodipodi-0.dtd"
   xmlns="http://www.w3.org/2000/svg"
   xmlns:svg="http://www.w3.org/2000/svg"
   xmlns:rdf="http://www.w3.org/1999/02/22-rdf-syntax-ns#"
   xmlns:cc="http://creativecommons.org/ns#"
   xmlns:dc="http://purl.org/dc/elements/1.1/">
  <defs
     id="defs3672" />
  <sodipodi:namedview
     id="base"
     pagecolor="#ffffff"
     bordercolor="#666666"
     borderopacity="1.0"
     inkscape:pageopacity="0.0"
     inkscape:pageshadow="2"
     inkscape:zoom="16.61701"
     inkscape:cx="13.630611"
     inkscape:cy="14.021776"
     inkscape:document-units="px"
     inkscape:current-layer="svg3678"
     showgrid="false"
     units="px"
     inkscape:pagecheckerboard="true"
     inkscape:window-width="1300"
     inkscape:window-height="827"
     inkscape:window-x="208"
     inkscape:window-y="64"
     inkscape:window-maximized="0"
     fit-margin-top="0"
     fit-margin-left="0"
     fit-margin-right="0"
     fit-margin-bottom="0"
     inkscape:snap-smooth-nodes="true" />
  <metadata
     id="metadata3675">
    <rdf:RDF>
      <cc:Work
         rdf:about="">
        <dc:format>image/svg+xml</dc:format>
        <dc:type
           rdf:resource="http://purl.org/dc/dcmitype/StillImage" />
      </cc:Work>
    </rdf:RDF>
  </metadata>
  <rect
     rx="1.0583334"
     y="0.27034447"
     x="0.27830637"
     height="6.8791666"
     width="6.8791666"
     id="rect5265"
     style="display:inline;fill:#1279ff;fill-opacity:1;fill-rule:nonzero;stroke:#ffffff;stroke-width:0.529167;stroke-miterlimit:4;stroke-dasharray:none" />
  <rect
     rx="1.0583334"
     y="0.27034447"
     x="0.27830637"
     height="6.8791666"
     width="6.8791666"
     id="rect20435"
     style="display:inline;fill:#1279ff;fill-opacity:1;fill-rule:nonzero;stroke:none;stroke-width:0.264583" />
  <path
     sodipodi:nodetypes="ccccccccccccccccccccccccssssssssss"
     style="color:#000000;display:inline;overflow:visible;visibility:visible;fill:#ffffff;fill-opacity:1;fill-rule:nonzero;stroke:none;stroke-width:0.529167;marker:none;enable-background:accumulate"
     d="M 2.394973,0.74738268 V 1.0902927 H 1.9440965 c -0.1713971,0 -0.3428735,0.17146 -0.3428735,0.34291 v 4.35843 h 0.2836069 v 0.7853 h 0.7981156 v -0.7853 h 2.0991248 v 0.7853 h 0.8039629 v -0.7853 h 0.2485232 v -4.35843 c 0,-0.17145 -0.17145,-0.34291 -0.3428736,-0.34291 H 5.0408064 V 0.74738268 Z M 2.1303896,1.8228827 h 3.1750001 v 1.5875 H 2.1303896 Z m 0.377825,2.69656 c 0.1899444,0 0.3428471,0.15294 0.3428471,0.34291 0,0.18998 -0.1529027,0.34292 -0.3428471,0.34292 -0.1899443,0 -0.3429264,-0.15294 -0.3429264,-0.34292 0,-0.18997 0.1529821,-0.34291 0.3429264,-0.34291 z m 2.4003795,0 c 0.1899973,0 0.3429264,0.15294 0.3429264,0.34291 0,0.18998 -0.1529291,0.34292 -0.3429264,0.34292 -0.1899444,0 -0.3428471,-0.15294 -0.3428471,-0.34292 0,-0.18997 0.1529027,-0.34291 0.3428471,-0.34291 z"
     id="path8522-6-8-2"
     inkscape:connector-curvature="0" />
</svg>
