<svg width="28" height="28" version="1.1" viewBox="0 0 7.4083 7.4083" xmlns="http://www.w3.org/2000/svg">
 <g transform="translate(-.52149 -288.89)">
  <rect x=".78608" y="289.16" width="6.8792" height="6.8792" rx="1.0583" fill="#1279ff" stroke="#fff" stroke-width=".52917"/>
  <rect x=".78608" y="289.16" width="6.8792" height="6.8792" rx="1.0583" fill="#1279ff"/>
  <path d="m2.9027 289.68v.34291h-.45088c-.1714 0-.34287.17146-.34287.34291v4.3584h.28361v.7853h.79812v-.7853h2.0991v.7853h.80396v-.7853h.24852v-4.3584c0-.17145-.17145-.34291-.34287-.34291h-.45088v-.34291zm-.26458 1.0755h3.175v1.5875h-3.175zm.37782 2.6966c.18994 0 .34285.15294.34285.34291 0 .18998-.1529.34292-.34285.34292-.18994 0-.34293-.15294-.34293-.34292 0-.18997.15298-.34291.34293-.34291zm2.4004 0c.19 0 .34293.15294.34293.34291 0 .18998-.15293.34292-.34293.34292-.18994 0-.34285-.15294-.34285-.34292 0-.18997.1529-.34291.34285-.34291z" color="#000000" fill="#fff"/>
 </g>
</svg>
