<svg width="32" height="32" version="1.1" viewBox="0 0 8.47 8.47" xmlns="http://www.w3.org/2000/svg">
 <g transform="translate(-3.08 -286)">
  <circle cx="7.37" cy="290" r="3.59" fill="#ffc400" stroke="#f2b800" stroke-width=".449"/>
  <g transform="matrix(.45 -.0651 .0651 .45 -64.3 -179)" fill="#5d0000" fill-rule="evenodd">
   <path d="m6.79 1048s-1.34-1.57-2.73-3.85c-1.1-1.81-2.12-4.19-2.22-4.44.753-.547 4.59-2.28 5.37-2.45.226.875.581 2.59 1.33 4.25.774 1.72 1.71 3.06 2.05 3.51-.83.782-3.81 2.97-3.81 2.97zm2.62-.958c.0966.801 2.8 4.53 3.71 5.2.352.261.599.048 1.2-.375.599-.423.824-.783.606-1.29-.448-1.05-2.41-4.8-3.33-5.4-.885-1.29-1.63-2.26-2.35-4.05-.754-1.85-1.24-3.72-1.52-4.83-1.03.298-2.73 1.02-3.77 1.5-1.17.537-2 1.06-2.93 1.56.293.852.993 2.95 2.46 5.22 1.16 1.79 2.13 3.22 3.22 4.3zm-4.06-7.45c0-.414.355-.75.792-.75s.792.336.792.75c0 .415-.355.751-.792.751s-.792-.336-.792-.751z" stroke="#f2b800" stroke-linejoin="round"/>
   <path d="m6.79 1048s-1.34-1.57-2.73-3.85c-1.1-1.81-2.12-4.19-2.22-4.44.753-.547 4.59-2.28 5.37-2.45.226.875.581 2.59 1.33 4.25.774 1.72 1.71 3.06 2.05 3.51-.83.782-3.81 2.97-3.81 2.97zm2.62-.958c.0966.801 2.8 4.53 3.71 5.2.352.261.599.048 1.2-.375.599-.423.824-.783.606-1.29-.448-1.05-2.41-4.8-3.33-5.4-.885-1.29-1.63-2.26-2.35-4.05-.754-1.85-1.24-3.72-1.52-4.83-1.03.298-2.73 1.02-3.77 1.5-1.17.537-2 1.06-2.93 1.56.293.852.993 2.95 2.46 5.22 1.16 1.79 2.13 3.22 3.22 4.3zm-4.06-7.45c0-.414.355-.75.792-.75s.792.336.792.75c0 .415-.355.751-.792.751s-.792-.336-.792-.751z"/>
  </g>
 </g>
</svg>
