<svg xmlns="http://www.w3.org/2000/svg" width="580" height="580" version="1.0"><path d="M489 124H87c-14.8 0-26.9 11.8-26.9 26.4v283c0 14.5 12 26.5 26.9 26.5h402c15 .1 27-10.9 27-25.9V151c0-14.5-12-26.4-26.9-26.4"/><path d="M84 176v89c0 8 7 15 16 15h89c8 0 15-7 15-15v-89c0-9-7-16-15-16h-89c-9 0-16 7-16 16zm144 0v89c0 9 7 16 16 15h89c8 0 15-7 15-15v-89c0-9-7-16-16-16h-89c-8 0-15 7-15 16zm144 0v89c0 8 7 15 16 15h89c8 0 15-7 15-15v-89c0-9-7-16-15-16h-89c-9 0-16 7-16 16z" opacity=".7" fill="#fff"/><path d="M276 3.6h24v132h-24z"/></svg>