<svg width="64" height="64" version="1.1" xmlns="http://www.w3.org/2000/svg">
 <g stroke-linecap="round" stroke-linejoin="round" stroke-opacity=".784">
  <path d="m58.152 45.488c0.25103 6.6179-6.9796 11.939-13.222 9.7496-6.3927-1.7166-9.3497-10.194-5.407-15.512 3.5304-5.6027 12.501-5.9201 16.418-0.58082 1.425 1.7855 2.2174 4.0596 2.2113 6.3434z" fill="#820000" fill-opacity=".784" stroke="#ffffff" stroke-width="9.8443"/>
  <path d="m58.152 45.488c0.25103 6.6179-6.9796 11.939-13.222 9.7496-6.3927-1.7166-9.3497-10.194-5.407-15.512 3.5304-5.6027 12.501-5.9201 16.418-0.58082 1.425 1.7855 2.2174 4.0596 2.2113 6.3434z" fill="#780000" stroke-width="4.9222"/>
  <path d="m26.35 45.487c0.25103 6.6191-6.9796 11.939-13.222 9.7508-6.3933-1.7178-9.3504-10.195-5.4075-15.513 3.5301-5.6027 12.502-5.9201 16.418-0.58082 1.425 1.7855 2.2174 4.0596 2.2113 6.3434z" fill="#820000" fill-opacity=".784" stroke="#ffffff" stroke-width="9.8443"/>
  <path d="m26.35 45.487c0.25103 6.6191-6.9796 11.939-13.222 9.7508-6.3933-1.7178-9.3504-10.195-5.4075-15.513 3.5301-5.6027 12.502-5.9201 16.418-0.58082 1.425 1.7855 2.2174 4.0596 2.2113 6.3434z" fill="#780000" stroke-width="4.9222"/>
  <path d="m42.25 18.513c0.25103 6.6179-6.9796 11.939-13.222 9.7496-6.3927-1.7166-9.3497-10.194-5.407-15.513 3.5292-5.6025 12.501-5.9201 16.418-0.58106 1.425 1.7861 2.2174 4.0599 2.2113 6.3442z" fill="#820000" fill-opacity=".784" stroke="#ffffff" stroke-width="9.8443"/>
  <path d="m42.25 18.513c0.25103 6.6179-6.9796 11.939-13.222 9.7496-6.3927-1.7166-9.3497-10.194-5.407-15.513 3.5292-5.6025 12.501-5.9201 16.418-0.58106 1.425 1.7861 2.2174 4.0599 2.2113 6.3442z" fill="#780000" stroke-width="4.9222"/>
 </g>
</svg>
