<svg xmlns="http://www.w3.org/2000/svg" version="1.0" height="580" width="580"><path d="M156.2 183.438l30 170c5.7 30.7 27.3 56.9 58 66 8.1 2.5 16.3 3.8 24.4 3.8l59 .2c26.7 0 26.8-36 .2-35.8l-56-.2c-5.4-.4-11.2-.6-16.6-2.3-18-5.7-30.7-20.8-34-38l-30.2-169.5c-2.1-11.9-9.9-17.3-17.8-17.7-10.1-.4-19.8 8.3-17 23.5zM269.606 160c-23.413 0-42.394-18.98-42.394-42.394 0-23.413 18.98-42.394 42.394-42.394 23.414 0 42.394 18.98 42.394 42.394C312 141.02 293.02 160 269.606 160zM420 4.639L317.518 235.227l-7.018-41.04c-1.5-8.35-16.2-21.15-34.25-21.85C256 171.638 240 187.64 240 207.64c5.382 38.24 12.867 78.744 17.184 103.672C261.5 336.238 276.2 349.037 294 349.037h90l.2 111.102c.2 5.1 8.1 12.6 17.8 12.6 9.7 0 17.6-7.5 17.8-12.6l.2-137.102c0-14.6-12-26.5-27-26.5h-65l-3.814-22.314L444 4.639z"/></svg>