<svg xmlns="http://www.w3.org/2000/svg" version="1.0" width="580" height="580"><path d="M436 47v50h-50v50h50v50h50v-50h50V97h-50V47zM313.848 192.361C271.656 192.5 246.5 219.1 229 245.7c-19.5-30.4-45-58-98-52-46.8 4.9-83 48.7-86 96-3 41 11.9 69 27.5 95 37.5 62 101 111 157 149 57-38 127-92 163-158 12.3-22.4 25-51 22.75-83.85C411.7 242 378 202 333 194c-6.75-1.137-13.125-1.658-19.152-1.639zM186.199 216.2c17.4 9.8 29.4 25 39.5 42-8.8 36-14.998 70-23.898 106l84-60.799c-10.4 54-24.001 113-36.801 168 3.9 1 13.4-.6 22.5-.2-13.3 17-27.5 33.5-43.5 48.7-8.5-20-16.2-40.9-25.7-59.9 6.4-.9 14 4.9 21 6.4 5.1-29.9 9.2-60.8 12.9-92-22.6 13.8-46.8 34-71 49.8 7.7-68 14.4-142 21-208z" opacity=".8" color="#000" stroke-width="64" stroke-linecap="round" fill="none" stroke-linejoin="round" stroke="#fff"/><path d="M436 47v50h-50v50h50v50h50v-50h50V97h-50V47zM313.848 192.361C271.656 192.5 246.5 219.1 229 245.7c-19.5-30.4-45-58-98-52-46.8 4.9-83 48.7-86 96-3 41 11.9 69 27.5 95 37.5 62 101 111 157 149 57-38 127-92 163-158 12.3-22.4 25-51 22.75-83.85C411.7 242 378 202 333 194c-6.75-1.137-13.125-1.658-19.152-1.639zM186.199 216.2c17.4 9.8 29.4 25 39.5 42-8.8 36-14.998 70-23.898 106l84-60.799c-10.4 54-24.001 113-36.801 168 3.9 1 13.4-.6 22.5-.2-13.3 17-27.5 33.5-43.5 48.7-8.5-20-16.2-40.9-25.7-59.9 6.4-.9 14 4.9 21 6.4 5.1-29.9 9.2-60.8 12.9-92-22.6 13.8-46.8 34-71 49.8 7.7-68 14.4-142 21-208z" fill="#D20000"/></svg>