<?xml version="1.0" encoding="UTF-8" standalone="no"?>
<!-- Created with Inkscape (http://www.inkscape.org/) -->

<svg
   xmlns:dc="http://purl.org/dc/elements/1.1/"
   xmlns:cc="http://creativecommons.org/ns#"
   xmlns:rdf="http://www.w3.org/1999/02/22-rdf-syntax-ns#"
   xmlns:svg="http://www.w3.org/2000/svg"
   xmlns="http://www.w3.org/2000/svg"
   xmlns:xlink="http://www.w3.org/1999/xlink"
   xmlns:sodipodi="http://sodipodi.sourceforge.net/DTD/sodipodi-0.dtd"
   xmlns:inkscape="http://www.inkscape.org/namespaces/inkscape"
   width="20"
   height="26"
   viewBox="0 0 5.2916666 6.8791671"
   version="1.1"
   id="svg3678"
   inkscape:version="0.92.4 (5da689c313, 2019-01-14)"
   sodipodi:docname="s_drinking_water-src.svg">
  <defs
     id="defs3672" />
  <sodipodi:namedview
     id="base"
     pagecolor="#ffffff"
     bordercolor="#666666"
     borderopacity="1.0"
     inkscape:pageopacity="0.0"
     inkscape:pageshadow="2"
     inkscape:zoom="4.4816963"
     inkscape:cx="9.3088349"
     inkscape:cy="13.174345"
     inkscape:document-units="px"
     inkscape:current-layer="layer1"
     showgrid="false"
     units="px"
     inkscape:pagecheckerboard="true"
     inkscape:window-width="1300"
     inkscape:window-height="827"
     inkscape:window-x="213"
     inkscape:window-y="99"
     inkscape:window-maximized="0"
     fit-margin-top="0"
     fit-margin-left="0"
     fit-margin-right="0"
     fit-margin-bottom="0" />
  <metadata
     id="metadata3675">
    <rdf:RDF>
      <cc:Work
         rdf:about="">
        <dc:format>image/svg+xml</dc:format>
        <dc:type
           rdf:resource="http://purl.org/dc/dcmitype/StillImage" />
        <dc:title></dc:title>
      </cc:Work>
    </rdf:RDF>
  </metadata>
  <g
     inkscape:label="Layer 1"
     inkscape:groupmode="layer"
     id="layer1"
     transform="translate(-0.51412478,-289.42028)"
     style="display:inline">
    <path
       style="color:#000000;font-style:normal;font-variant:normal;font-weight:normal;font-stretch:normal;font-size:medium;line-height:normal;font-family:Sans;-inkscape-font-specification:Sans;text-indent:0;text-align:start;text-decoration:none;text-decoration-line:none;letter-spacing:normal;word-spacing:normal;text-transform:none;writing-mode:lr-tb;direction:ltr;baseline-shift:baseline;text-anchor:start;display:inline;overflow:visible;visibility:visible;fill:#0d3082;fill-opacity:1;fill-rule:nonzero;stroke:none;stroke-width:0.95201313;marker:none;enable-background:accumulate"
       d="m 3.1649359,289.42194 -0.355891,0.37505 c 0,0 -0.5561013,0.57499 -1.1110119,1.3127 -0.5550165,0.7377 -1.17183955,1.57743 -1.17183955,2.49143 0,1.48153 1.19181555,2.68789 2.63874245,2.68789 1.4476942,0 2.6387426,-1.20665 2.6387426,-2.68789 0,-0.914 -0.6168231,-1.75373 -1.1718396,-2.49143 -0.5549106,-0.73771 -1.1110119,-1.3127 -1.1110119,-1.3127 z"
       id="path4663"
       inkscape:connector-curvature="0" />
    <path
       transform="matrix(0.27850878,0,0,0.27463092,-598.26433,240.83004)"
       inkscape:href="#path4656"
       sodipodi:type="inkscape:offset"
       inkscape:radius="-0.50215304"
       inkscape:original="M 2159.5 176.96875 L 2158.2188 178.3125 C 2158.2188 178.3125 2156.2112 180.40758 2154.2188 183.09375 C 2152.226 185.77993 2150.0312 188.85941 2150.0312 192.1875 C 2150.0312 197.58214 2154.3047 201.96875 2159.5 201.96875 C 2164.698 201.96875 2168.9688 197.58107 2168.9688 192.1875 C 2168.9688 188.85942 2166.774 185.77993 2164.7812 183.09375 C 2162.7888 180.40758 2160.7812 178.3125 2160.7812 178.3125 L 2159.5 176.96875 z "
       xlink:href="#path4656"
       style="color:#000000;font-style:normal;font-variant:normal;font-weight:normal;font-stretch:normal;font-size:medium;line-height:normal;font-family:Sans;-inkscape-font-specification:Sans;text-indent:0;text-align:start;text-decoration:none;text-decoration-line:none;letter-spacing:normal;word-spacing:normal;text-transform:none;writing-mode:lr-tb;direction:ltr;baseline-shift:baseline;text-anchor:start;display:inline;overflow:visible;visibility:visible;fill:#00ceff;fill-opacity:1;fill-rule:nonzero;stroke:none;stroke-width:3.59815979;marker:none;enable-background:accumulate"
       id="path4665"
       d="m 2159.5,177.69531 -0.918,0.96289 a 0.50220325,0.50220325 0 0 1 0,0.002 c 0,0 -1.9883,2.07554 -3.959,4.73242 -1.9885,2.68038 -4.0898,5.6876 -4.0898,8.79492 0,5.12944 4.0542,9.2793 8.9668,9.2793 4.9154,0 8.9668,-4.15081 8.9668,-9.2793 0,-3.10731 -2.1013,-6.11454 -4.0898,-8.79492 -1.9707,-2.65688 -3.959,-4.73242 -3.959,-4.73242 a 0.50220325,0.50220325 0 0 1 0,-0.002 z"
       inkscape:transform-center-y="-0.073053855" />
    <path
       d="m 2159.5,177.69531 -0.918,0.96289 a 0.50220325,0.50220325 0 0 1 0,0.002 c 0,0 -1.9883,2.07554 -3.959,4.73242 -1.9885,2.68038 -4.0898,5.6876 -4.0898,8.79492 0,5.12944 4.0542,9.2793 8.9668,9.2793 4.9154,0 8.9668,-4.15081 8.9668,-9.2793 0,-3.10731 -2.1013,-6.11454 -4.0898,-8.79492 -1.9707,-2.65688 -3.959,-4.73242 -3.959,-4.73242 a 0.50220325,0.50220325 0 0 1 0,-0.002 z"
       id="path515034"
       style="color:#000000;font-style:normal;font-variant:normal;font-weight:normal;font-stretch:normal;font-size:medium;line-height:normal;font-family:Sans;-inkscape-font-specification:Sans;text-indent:0;text-align:start;text-decoration:none;text-decoration-line:none;letter-spacing:normal;word-spacing:normal;text-transform:none;writing-mode:lr-tb;direction:ltr;baseline-shift:baseline;text-anchor:start;display:none;overflow:visible;visibility:visible;fill:#0c91e6;fill-opacity:1;fill-rule:nonzero;stroke:none;stroke-width:3.59815979;marker:none;enable-background:accumulate"
       xlink:href="#path4656"
       inkscape:original="M 2159.5 176.96875 L 2158.2188 178.3125 C 2158.2188 178.3125 2156.2112 180.40758 2154.2188 183.09375 C 2152.226 185.77993 2150.0312 188.85941 2150.0312 192.1875 C 2150.0312 197.58214 2154.3047 201.96875 2159.5 201.96875 C 2164.698 201.96875 2168.9688 197.58107 2168.9688 192.1875 C 2168.9688 188.85942 2166.774 185.77993 2164.7812 183.09375 C 2162.7888 180.40758 2160.7812 178.3125 2160.7812 178.3125 L 2159.5 176.96875 z "
       inkscape:radius="-0.50215304"
       sodipodi:type="inkscape:offset"
       inkscape:href="#path4656"
       transform="matrix(0.27850878,0,0,0.27463092,-598.26433,240.83058)" />
  </g>
</svg>
