<?xml version="1.0" encoding="UTF-8" standalone="no"?>
<svg xmlns="http://www.w3.org/2000/svg" xmlns:xlink="http://www.w3.org/1999/xlink" version="1.0" width="580" height="580">
  <defs>
    <g id="icon">
      <path d="m 375,172 0,0 -0,-111 c 0,-8 -7,-15 -15,-15 l -39,0 0,142 39,0 0,-0 c 9,0 15,-7 15,-15 z m 0,351 0,-0 -0,-108 c 0,-8 -7,-15 -15,-15 l -39,0 0,138 c 0,0 39,0 39,0 l 0,0 c 9,0 15,-7 15,-15 z M 186,285 c -3,209 87,253 110,253 l 1,-138 c -19,0 -23,-21 -28,-64 -3,-29 -4,-64 0,-99 3,-25 7,-49 28,-49 L 296,46 C 273,48 189,87 186,285 Z" />
    </g>
  </defs>
  <use xlink:href="#icon" style="stroke:#ffffff;stroke-width:50;stroke-linejoin:round" />
  <use xlink:href="#icon" style="fill:#D20000" />
</svg>