<?xml version="1.0" encoding="UTF-8" standalone="no"?>
<svg xmlns="http://www.w3.org/2000/svg" xmlns:xlink="http://www.w3.org/1999/xlink" version="1.0" width="580" height="580">
  <defs>
    <g id="icon">
      <path d="m 445,117 -23,-23 -21,81 c 27,-7 53,-15 80,-22 l -23,-23 c 21,-21 42,-42 63,-63 -4,-4 -8,-8 -12,-12 C 487,76 466,96 445,117 Z" />
      <path d="m 55,72 c 21,21 42,42 62,63 l -23,23 c 27,7 54,14 81,21 -7,-27 -15,-53 -22,-80 l -23,23 C 108,102 88,81 67,60 63,64 59,68 55,72 Z" />
      <path d="M 234,234 H 133 V 345 H 235 V 447 H 346 V 346 H 448 V 235 H 347 V 134 l -113,-2 z" />
      <path d="m 427,481 23,-23 63,63 12,-12 -62,-62 24,-24 C 460,416 433,409 406,401 413,427 420,454 427,481 Z" />
      <path d="m 99,428 23,23 -62,63 12,12 63,-62 24,24 21,-81 z" />
    </g>
  </defs>
  <use xlink:href="#icon" style="stroke:#ffffff;stroke-width:50;stroke-linejoin:round" />
  <use xlink:href="#icon" style="fill:#D20000" />
</svg>