<svg xmlns="http://www.w3.org/2000/svg" version="1.0" width="580" height="580"><path d="M176.5 114.7c.412-7.422-3.21-15.18-10-18.6-6.91-3.48-15.935-1.934-21 3-6.536 6.367-8.206 17.658-2.5 24.9 12.497 15.862 32.712 4.887 33.5-9.3zm117 5.3l-19.6 50.6c-15.3 2.7-24.7 18.8-22.9 33.6v63h20c.5 10.2-1.3 20.7 1.6 30.6 5.4 14.9 29.4 14.8 34.7-.1 2.9-9.9 1.1-20.4 1.6-30.5h136c.5 10.2-1.3 20.7 1.6 30.5 5.4 14.9 29 15 34.7.1 2.9-9.9 1.2-20.4 1.6-30.6h20c.2-23.2.2-47.2.2-71.2-1-12-11-23-23-25-7-20-15-40-22-60-6-11-18-13-29-13H323c-13.6-.9-26 8.9-29.5 22zm138.2-2c10.9 0 12 12.4 15.5 20l12 32h-164c5.8-15.3 11.3-30.9 17.4-46 1.8-3.8 5.8-6.4 9.8-6.2 36.292.411 72.899.2 109.3.2zM90.3 198.6c-.3 7.6 10.4 10 15.7 4.7 5-13.3 7-21.3 11-31.3 2.4-2.9 3.2-2.9 2 .9-1.5 8.7-3.7 17.4-4.7 26 .6 16.7.9 33.5 1.4 50-6.9 14.4-10.2 23-16.9 37C91 304 115 315 123 294c6-12.7 12.3-25.4 18-38-.2-10.6-.3-19 0-30.6l19.3 25c1.7 17.8 3.4 35.4 5.1 50 3.4 14.2 22.5 9.9 20.8-6.9C184 277 183 254 180 238c-7-13-16-24-24-35l4-19c5.3 5.5 11.4 10.2 17 15.4 12.9 13.3 23.3-6.4 13.8-12.5-5.6-5.1-11.7-9.9-17-15-4.1-9.4-8.2-19-12.4-28-5.3-6.1-11.4-9.8-18.3-9.8-6.8-1.6-31.5 17.9-41.45 26.5-4.45 12.7-7.15 25.9-11.35 38zm183.9 15.8c-3.7-11 5.1-23.6 16.8-23.3 14.5-.7 23 18.8 13.6 29.4-8 11-27 7-30.4-6.1zm174 .1c-3.7-11 5.1-23.6 16.8-23.3 14.5-.7 23 18.8 13.6 29.4-8 11-27 7-30.4-6.1zM86.6 423c46.7-25.8 103-44 148-31 45.9 14 84 47.6 131 57 53.8 13 110-1.6 158-26-6-17.2-15.3-35-17.6-42.6-42.9 16.7-97 30-137 18.7C303 375 263 343 201 337c-48 .7-96 19.5-136 45 2.2 7.8 17.4 36 21.6 41z" opacity=".8" color="#000" stroke-width="64" fill="none" stroke-linejoin="round" stroke="#ff0"/><path d="M176.5 114.7c.412-7.422-3.21-15.18-10-18.6-6.91-3.48-15.935-1.934-21 3-6.536 6.367-8.206 17.658-2.5 24.9 12.497 15.862 32.712 4.887 33.5-9.3zm117 5.3l-19.6 50.6c-15.3 2.7-24.7 18.8-22.9 33.6v63h20c.5 10.2-1.3 20.7 1.6 30.6 5.4 14.9 29.4 14.8 34.7-.1 2.9-9.9 1.1-20.4 1.6-30.5h136c.5 10.2-1.3 20.7 1.6 30.5 5.4 14.9 29 15 34.7.1 2.9-9.9 1.2-20.4 1.6-30.6h20c.2-23.2.2-47.2.2-71.2-1-12-11-23-23-25-7-20-15-40-22-60-6-11-18-13-29-13H323c-13.6-.9-26 8.9-29.5 22zm138.2-2c10.9 0 12 12.4 15.5 20l12 32h-164c5.8-15.3 11.3-30.9 17.4-46 1.8-3.8 5.8-6.4 9.8-6.2 36.292.411 72.899.2 109.3.2zM90.3 198.6c-.3 7.6 10.4 10 15.7 4.7 5-13.3 7-21.3 11-31.3 2.4-2.9 3.2-2.9 2 .9-1.5 8.7-3.7 17.4-4.7 26 .6 16.7.9 33.5 1.4 50-6.9 14.4-10.2 23-16.9 37C91 304 115 315 123 294c6-12.7 12.3-25.4 18-38-.2-10.6-.3-19 0-30.6l19.3 25c1.7 17.8 3.4 35.4 5.1 50 3.4 14.2 22.5 9.9 20.8-6.9C184 277 183 254 180 238c-7-13-16-24-24-35l4-19c5.3 5.5 11.4 10.2 17 15.4 12.9 13.3 23.3-6.4 13.8-12.5-5.6-5.1-11.7-9.9-17-15-4.1-9.4-8.2-19-12.4-28-5.3-6.1-11.4-9.8-18.3-9.8-6.8-1.6-31.5 17.9-41.45 26.5-4.45 12.7-7.15 25.9-11.35 38zm183.9 15.8c-3.7-11 5.1-23.6 16.8-23.3 14.5-.7 23 18.8 13.6 29.4-8 11-27 7-30.4-6.1zm174 .1c-3.7-11 5.1-23.6 16.8-23.3 14.5-.7 23 18.8 13.6 29.4-8 11-27 7-30.4-6.1zM86.6 423c46.7-25.8 103-44 148-31 45.9 14 84 47.6 131 57 53.8 13 110-1.6 158-26-6-17.2-15.3-35-17.6-42.6-42.9 16.7-97 30-137 18.7C303 375 263 343 201 337c-48 .7-96 19.5-136 45 2.2 7.8 17.4 36 21.6 41z" fill="red" color="#000"/></svg>