<?xml version="1.0" encoding="UTF-8" standalone="no"?>
<svg
   width="32"
   height="32"
   version="1.1"
   viewBox="0 0 8.4666286 8.4666286"
   id="svg10"
   xmlns="http://www.w3.org/2000/svg"
   xmlns:svg="http://www.w3.org/2000/svg">
  <defs
     id="defs14" />
  <rect
     x="0.79371428"
     y="0.79371428"
     width="6.8792"
     height="6.8792"
     rx="1.0583"
     fill="#0042e8"
     stroke="#ffffff"
     stroke-width="0.24"
     id="rect2"
     style="display:inline" />
  <path
     id="path6"
     style="display:inline;fill:#fcec00;fill-opacity:1;stroke-width:3.77954"
     d="M 9.6542969 6.09375 C 9.0446941 6.09375 8.5546875 6.5855586 8.5546875 7.1953125 L 8.5546875 24.804688 C 8.5546875 25.354989 9.1039196 25.90625 9.6542969 25.90625 L 19.560547 25.90625 C 20.110849 25.90625 20.660156 25.354989 20.660156 24.804688 L 20.660156 19.302734 L 21.775391 19.259766 C 22.325277 19.240868 22.324219 19.810547 22.324219 19.810547 L 22.324219 22.011719 C 22.324219 23.112322 22.875959 23.662109 23.976562 23.662109 C 25.077052 23.662109 25.626953 23.112322 25.626953 22.011719 L 25.626953 15.958984 C 25.626953 14.858381 23.626953 13.756853 23.626953 12.65625 L 23.626953 9.3554688 L 22.525391 9.3554688 L 20.660156 8.296875 L 20.660156 7.1953125 C 20.660156 6.5855586 20.170376 6.09375 19.560547 6.09375 L 9.6542969 6.09375 z M 10.630859 8.0136719 L 18.583984 8.0136719 L 18.583984 12.949219 L 10.630859 12.949219 L 10.630859 8.0136719 z M 10.636719 8.0546875 L 10.636719 10.480469 L 10.636719 12.90625 L 14.597656 12.90625 L 18.558594 12.90625 L 18.558594 10.480469 L 18.558594 8.0546875 L 14.597656 8.0546875 L 10.636719 8.0546875 z M 22.525391 11.556641 L 22.525391 13.207031 C 22.525391 14.307635 24.525391 15.409162 24.525391 16.509766 L 24.525391 22.011719 C 24.525391 22.56202 23.976563 22.5625 23.976562 22.5625 C 23.976562 22.5625 23.425781 22.56202 23.425781 22.011719 L 23.425781 19.259766 C 23.425781 18.709464 22.874634 18.160156 22.324219 18.160156 C 21.957418 18.160156 20.660156 18.201172 20.660156 18.201172 L 20.660156 11.597656 L 22.525391 11.556641 z "
     transform="scale(0.26458214)" />
  <rect
     style="display:inline;fill:#0042e8;fill-opacity:1;stroke:none;stroke-width:0.529164;stroke-linejoin:round;stroke-miterlimit:4;stroke-dasharray:none;stroke-opacity:1;stop-color:#000000"
     id="rect4013"
     width="2.1046"
     height="1.3054"
     x="2.8056726"
     y="2.1311264"
     rx="0" />
</svg>
