<?xml version="1.0" encoding="UTF-8" standalone="no"?>
<!-- Created with Inkscape (http://www.inkscape.org/) -->

<svg
   width="34"
   height="34"
   viewBox="0 0 8.9958331 8.9958336"
   version="1.1"
   id="svg2499"
   inkscape:version="1.1.1 (3bf5ae0d25, 2021-09-20)"
   sodipodi:docname="s_gym-LE.svg"
   xmlns:inkscape="http://www.inkscape.org/namespaces/inkscape"
   xmlns:sodipodi="http://sodipodi.sourceforge.net/DTD/sodipodi-0.dtd"
   xmlns="http://www.w3.org/2000/svg"
   xmlns:svg="http://www.w3.org/2000/svg"
   xmlns:rdf="http://www.w3.org/1999/02/22-rdf-syntax-ns#"
   xmlns:cc="http://creativecommons.org/ns#"
   xmlns:dc="http://purl.org/dc/elements/1.1/">
  <defs
     id="defs2493" />
  <sodipodi:namedview
     id="base"
     pagecolor="#ffffff"
     bordercolor="#666666"
     borderopacity="1.0"
     inkscape:pageopacity="0.0"
     inkscape:pageshadow="2"
     inkscape:zoom="15.412535"
     inkscape:cx="23.90911"
     inkscape:cy="20.827203"
     inkscape:document-units="px"
     inkscape:current-layer="svg2499"
     showgrid="false"
     units="px"
     inkscape:pagecheckerboard="true"
     inkscape:window-width="1058"
     inkscape:window-height="691"
     inkscape:window-x="110"
     inkscape:window-y="136"
     inkscape:window-maximized="0" />
  <metadata
     id="metadata2496">
    <rdf:RDF>
      <cc:Work
         rdf:about="">
        <dc:format>image/svg+xml</dc:format>
        <dc:type
           rdf:resource="http://purl.org/dc/dcmitype/StillImage" />
      </cc:Work>
    </rdf:RDF>
  </metadata>
  <circle
     r="4.2062097"
     cy="4.5227189"
     cx="4.5327754"
     style="display:inline;fill:#12ef12;fill-opacity:1;fill-rule:nonzero;stroke:#00dc00;stroke-width:0.525328;stroke-miterlimit:4;stroke-dasharray:none;stroke-dashoffset:0;stroke-opacity:1"
     id="use10776-4" />
  <path
     d="m 5.2729374,0.44408892 c -0.3774859,0 -0.683492,0.30639 -0.6834775,0.68433998 2.9e-6,0.37794 0.3060046,0.68432 0.6834775,0.68432 0.37747,0 0.6834731,-0.30638 0.683476,-0.68432 C 5.956428,0.75047892 5.6504204,0.44408892 5.2729374,0.44408892 Z M 4.0216212,1.8031689 c -0.036809,-9.6e-4 -0.074459,0.004 -0.110963,0.0188 -0.2456139,0.10197 -0.5095958,0.19753 -0.7518334,0.29396 -0.07456,0.0296 -0.1289178,0.0872 -0.1584358,0.15554 -0.029514,0.0685 -0.034184,0.14772 -0.00464,0.22238 0.1045237,0.24303 0.2012374,0.5002 0.2997915,0.74963 0.059028,0.1446 0.2236824,0.21465 0.3696964,0.15555 0.1460155,-0.0575 0.2174851,-0.22241 0.1615642,-0.36861 l -0.1926045,-0.4821 0.4815295,-0.19281 c 0.1444651,-0.0592 0.2159087,-0.224 0.1592104,-0.37097 -0.040188,-0.11022 -0.1428697,-0.17802 -0.2532859,-0.18141 z m 0.8461671,0.0667 c -0.1273515,-9.6e-4 -0.248803,0.0728 -0.3047239,0.1964 l -1.7288821,4.0079 c -0.073009,0.16798 0.00464,0.36239 0.1708447,0.43393 0.1677628,0.0716 0.3619589,-0.004 0.4334141,-0.17106 l 1.5067283,-3.49941 c 0.072211,0.12053 0.1382143,0.25564 0.205072,0.37482 0.037288,0.0669 0.099404,0.11356 0.1692973,0.13228 0.068353,0.0203 0.1460125,0.0145 0.2128078,-0.0234 0.2170037,-0.13096 0.4497316,-0.25653 0.6741622,-0.38259 0.1304841,-0.0746 0.177071,-0.24261 0.1048427,-0.37637 -0.072225,-0.13532 -0.2384349,-0.18354 -0.3704694,-0.11037 l -0.4349283,0.24575 -0.32,-0.57078 c -0.02174,-0.0995 -0.090079,-0.18664 -0.1910518,-0.23017 -0.041551,-0.0179 -0.084655,-0.0266 -0.127105,-0.0268 z m -0.1215937,2.25679 c -0.052879,0.001 -0.1061484,0.0156 -0.1551814,0.0439 -0.1553367,0.0902 -0.2112358,0.29083 -0.122696,0.44791 l 0.299793,0.52101 -0.5203659,0.30018 c -0.1553365,0.0918 -0.2081494,0.29239 -0.118055,0.44947 0.090093,0.15552 0.2904791,0.2115 0.447369,0.12284 0.2697846,-0.14649 0.5386817,-0.3218 0.8092975,-0.45724 0.079216,-0.0467 0.1335587,-0.12139 0.1553105,-0.2022 0.023306,-0.0824 0.013923,-0.17418 -0.034155,-0.25583 -0.1632871,-0.25922 -0.3138334,-0.53859 -0.4675761,-0.80797 -0.063001,-0.10689 -0.177403,-0.16533 -0.2937336,-0.16208 z m 1.9511647,1.92423 c -0.1025225,0 -0.1863906,0.0131 -0.1995941,0.0185 -1.5555282,0.27938 -3.1301789,0.5444 -4.6934488,0.81339 -0.4116393,0.0761 -0.7099036,0.43393 -0.7099036,0.85228 0,0.47748 0.3883342,0.86629 0.865214,0.86629 h 4.7377325 c 0.6990104,0 1.2737787,-0.5692 1.2737787,-1.27529 0,-0.69988 -0.5685552,-1.27533 -1.2737787,-1.27533 z m 0.0016,0.21773 c 0.5747407,0 1.0562658,0.4728 1.0562658,1.05759 0,0.27994 -0.1087295,0.54432 -0.3075579,0.74339 -0.1988298,0.19907 -0.4629162,0.30952 -0.7425195,0.30952 h -4.737732 c -0.3572716,0 -0.6477348,-0.29086 -0.6477348,-0.64858 0,-0.31105 0.2221232,-0.57543 0.5281338,-0.63764 1.5372717,-0.35068 3.1756516,-0.42065 4.6864873,-0.80951 0.0016,-0.004 0.076113,-0.0148 0.1646577,-0.0148 z m 0.00304,0.14772 c -0.506166,0 -0.9164955,0.41083 -0.9164912,0.91763 -4.3e-6,0.5068 0.4103252,0.91762 0.9164912,0.91762 0.5061643,0 0.9164954,-0.41082 0.916491,-0.91762 4.4e-6,-0.5068 -0.4103267,-0.91763 -0.916491,-0.91763 z m -4.7377326,0.80875 c -0.2831029,2e-5 -0.5126009,0.22981 -0.512598,0.51325 -2.9e-6,0.28345 0.2294951,0.51324 0.512598,0.51325 0.2831043,-10e-6 0.5126023,-0.2298 0.5126008,-0.51325 1.5e-6,-0.28344 -0.2294965,-0.51323 -0.5126008,-0.51325 z"
     id="circle2531-0"
     fill="#39ac39"
     style="font-variation-settings:normal;display:inline;vector-effect:none;fill:#ffcc00;fill-opacity:1;stroke:#00d400;stroke-width:0.529167;stroke-linecap:butt;stroke-linejoin:round;stroke-miterlimit:4;stroke-dasharray:none;stroke-dashoffset:0;stroke-opacity:1;-inkscape-stroke:none;stop-color:#000000" />
  <path
     d="m 5.2729374,0.44408891 c -0.3774859,0 -0.683492,0.30639 -0.6834775,0.68433999 2.9e-6,0.37794 0.3060046,0.68432 0.6834775,0.68432 0.37747,0 0.6834731,-0.30638 0.683476,-0.68432 C 5.956428,0.75047891 5.6504204,0.44408891 5.2729374,0.44408891 Z M 4.0216212,1.8031689 c -0.036809,-9.6e-4 -0.074459,0.004 -0.110963,0.0188 -0.2456139,0.10197 -0.5095958,0.19753 -0.7518334,0.29396 -0.07456,0.0296 -0.1289178,0.0872 -0.1584358,0.15554 -0.029514,0.0685 -0.034184,0.14772 -0.00464,0.22238 0.1045237,0.24303 0.2012374,0.5002 0.2997915,0.74963 0.059028,0.1446 0.2236824,0.21465 0.3696964,0.15555 0.1460155,-0.0575 0.2174851,-0.22241 0.1615642,-0.36861 l -0.1926045,-0.4821 0.4815295,-0.19281 c 0.1444651,-0.0592 0.2159087,-0.224 0.1592104,-0.37097 -0.040188,-0.11022 -0.1428697,-0.17802 -0.2532859,-0.18141 z m 0.8461671,0.0667 c -0.1273515,-9.6e-4 -0.248803,0.0728 -0.3047239,0.1964 l -1.7288821,4.0079 c -0.073009,0.16798 0.00464,0.36239 0.1708447,0.43393 0.1677628,0.0716 0.3619589,-0.004 0.4334141,-0.17106 l 1.5067283,-3.49941 c 0.072211,0.12053 0.1382143,0.25564 0.205072,0.37482 0.037288,0.0669 0.099404,0.11356 0.1692973,0.13228 0.068353,0.0203 0.1460125,0.0145 0.2128078,-0.0234 0.2170037,-0.13096 0.4497316,-0.25653 0.6741622,-0.38259 0.1304841,-0.0746 0.177071,-0.24261 0.1048427,-0.37637 -0.072225,-0.13532 -0.2384349,-0.18354 -0.3704694,-0.11037 l -0.4349283,0.24575 -0.32,-0.57078 c -0.02174,-0.0995 -0.090079,-0.18664 -0.1910518,-0.23017 -0.041551,-0.0179 -0.084655,-0.0266 -0.127105,-0.0268 z m -0.1215937,2.25679 c -0.052879,0.001 -0.1061484,0.0156 -0.1551814,0.0439 -0.1553367,0.0902 -0.2112358,0.29083 -0.122696,0.44791 l 0.299793,0.52101 -0.5203659,0.30018 c -0.1553365,0.0918 -0.2081494,0.29239 -0.118055,0.44947 0.090093,0.15552 0.2904791,0.2115 0.447369,0.12284 0.2697846,-0.14649 0.5386817,-0.3218 0.8092975,-0.45724 0.079216,-0.0467 0.1335587,-0.12139 0.1553105,-0.2022 0.023306,-0.0824 0.013923,-0.17418 -0.034155,-0.25583 -0.1632871,-0.25922 -0.3138334,-0.53859 -0.4675761,-0.80797 -0.063001,-0.10689 -0.177403,-0.16533 -0.2937336,-0.16208 z m 1.9511647,1.92423 c -0.1025225,0 -0.1863906,0.0131 -0.1995941,0.0185 -1.5555282,0.27938 -3.1301789,0.5444 -4.6934488,0.81339 -0.4116393,0.0761 -0.7099036,0.43393 -0.7099036,0.85228 0,0.47748 0.3883342,0.86629 0.865214,0.86629 h 4.7377325 c 0.6990104,0 1.2737787,-0.5692 1.2737787,-1.27529 0,-0.69988 -0.5685552,-1.27533 -1.2737787,-1.27533 z m 0.0016,0.21773 c 0.5747407,0 1.0562658,0.4728 1.0562658,1.05759 0,0.27994 -0.1087295,0.54432 -0.3075579,0.74339 -0.1988298,0.19907 -0.4629162,0.30952 -0.7425195,0.30952 h -4.737732 c -0.3572716,0 -0.6477348,-0.29086 -0.6477348,-0.64858 0,-0.31105 0.2221232,-0.57543 0.5281338,-0.63764 1.5372717,-0.35068 3.1756516,-0.42065 4.6864873,-0.80951 0.0016,-0.004 0.076113,-0.0148 0.1646577,-0.0148 z m 0.00304,0.14772 c -0.506166,0 -0.9164955,0.41083 -0.9164912,0.91763 -4.3e-6,0.5068 0.4103252,0.91762 0.9164912,0.91762 0.5061643,0 0.9164954,-0.41082 0.916491,-0.91762 4.4e-6,-0.5068 -0.4103267,-0.91763 -0.916491,-0.91763 z m -4.7377326,0.80875 c -0.2831029,2e-5 -0.5126009,0.22981 -0.512598,0.51325 -2.9e-6,0.28345 0.2294951,0.51324 0.512598,0.51325 0.2831043,-10e-6 0.5126023,-0.2298 0.5126008,-0.51325 1.5e-6,-0.28344 -0.2294965,-0.51323 -0.5126008,-0.51325 z"
     id="circle2531"
     fill="#39ac39"
     style="font-variation-settings:normal;display:inline;vector-effect:none;fill:#004900;fill-opacity:1;stroke-width:0.124972;stroke-linecap:butt;stroke-linejoin:miter;stroke-miterlimit:4;stroke-dasharray:none;stroke-dashoffset:0;stroke-opacity:1;-inkscape-stroke:none;stop-color:#000000" />
</svg>
