<?xml version="1.0" encoding="UTF-8" standalone="no"?>
<!-- Created with Inkscape (http://www.inkscape.org/) -->

<svg
   xmlns:dc="http://purl.org/dc/elements/1.1/"
   xmlns:cc="http://creativecommons.org/ns#"
   xmlns:rdf="http://www.w3.org/1999/02/22-rdf-syntax-ns#"
   xmlns:svg="http://www.w3.org/2000/svg"
   xmlns="http://www.w3.org/2000/svg"
   xmlns:sodipodi="http://sodipodi.sourceforge.net/DTD/sodipodi-0.dtd"
   xmlns:inkscape="http://www.inkscape.org/namespaces/inkscape"
   width="34"
   height="34"
   viewBox="0 0 8.9958331 8.9958336"
   version="1.1"
   id="svg6854"
   inkscape:version="0.92.4 (5da689c313, 2019-01-14)"
   sodipodi:docname="s_kindergarten-src.svg">
  <defs
     id="defs6848" />
  <sodipodi:namedview
     id="base"
     pagecolor="#ffffff"
     bordercolor="#666666"
     borderopacity="1.0"
     inkscape:pageopacity="0.0"
     inkscape:pageshadow="2"
     inkscape:zoom="11.2"
     inkscape:cx="11.837568"
     inkscape:cy="21.843192"
     inkscape:document-units="px"
     inkscape:current-layer="layer1"
     showgrid="false"
     units="px"
     inkscape:pagecheckerboard="true"
     inkscape:window-width="1223"
     inkscape:window-height="780"
     inkscape:window-x="87"
     inkscape:window-y="49"
     inkscape:window-maximized="0" />
  <metadata
     id="metadata6851">
    <rdf:RDF>
      <cc:Work
         rdf:about="">
        <dc:format>image/svg+xml</dc:format>
        <dc:type
           rdf:resource="http://purl.org/dc/dcmitype/StillImage" />
        <dc:title></dc:title>
      </cc:Work>
    </rdf:RDF>
  </metadata>
  <g
     inkscape:label="Layer 1"
     inkscape:groupmode="layer"
     id="layer1"
     transform="translate(0,-288.00416)">
    <circle
       r="4.2017407"
       cy="292.53302"
       cx="4.5908289"
       id="use19005-2"
       style="display:inline;fill:#5cecf2;fill-opacity:1;fill-rule:nonzero;stroke:#35e1ff;stroke-width:0.52476972;stroke-miterlimit:4;stroke-dasharray:none;stroke-dashoffset:0;stroke-opacity:1" />
    <g
       id="g7550"
       transform="translate(0.04724702,-0.51971727)" />
    <g
       id="g7576"
       transform="translate(-0.02362351,-0.1889881)">
      <path
         id="path4044-0"
         d="m 4.2551266,289.37492 c -0.025929,8.8e-4 -0.051991,0.006 -0.076041,0.0163 l -2.7787334,1.18015 c -0.077761,0.0328 -0.13081,0.1167 -0.1276086,0.20106 0.00318,0.0844 0.062574,0.16357 0.1426634,0.19032 l 3.4003719,1.14319 c 0.053472,0.0179 0.1142207,0.013 0.1641211,-0.0133 l 2.6635869,-1.40226 c 0.073528,-0.0387 0.1191418,-0.12442 0.1104106,-0.20707 -0.00873,-0.0826 -0.071252,-0.15704 -0.1512358,-0.17957 l -3.2852519,-0.92109 c -0.020108,-0.006 -0.041275,-0.008 -0.062283,-0.008 z m 0.583856,0.88286 c 0.015875,8e-5 0.031909,2.9e-4 0.048101,8.7e-4 0.2593181,0.006 0.5332412,0.0593 0.8218487,0.15981 0.1924315,0.067 0.3379523,0.13692 0.4364831,0.20965 0.098531,0.0727 0.1416844,0.14091 0.1293284,0.2045 -0.012171,0.0636 -0.070167,0.11904 -0.1735667,0.16583 -0.08853,0.04 -0.1951567,0.0677 -0.3196167,0.0833 -0.095224,0.0112 -0.2303198,0.0125 -0.4051564,0.004 l 0.2607998,0.0906 -0.4730221,0.21395 -2.4315737,-0.84676 0.5099315,-0.23071 0.8429095,0.29343 c -0.020373,-0.0475 -0.016404,-0.0918 0.0127,-0.13318 0.028628,-0.0413 0.082047,-0.0795 0.1598083,-0.11471 0.1504421,-0.0681 0.3439319,-0.1017 0.5812631,-0.10053 z m -0.026591,0.31319 c -0.086969,-8.8e-4 -0.1558131,0.0105 -0.2057665,0.0331 -0.068686,0.0311 -0.090752,0.0679 -0.066172,0.11127 0.024606,0.0433 0.1062038,0.0893 0.2444486,0.13747 0.1515004,0.0528 0.2824691,0.0811 0.3930914,0.0855 0.1106223,0.004 0.1984111,-0.008 0.2637896,-0.0374 0.060378,-0.0273 0.077497,-0.0621 0.051541,-0.10396 -0.025929,-0.0418 -0.1176602,-0.0901 -0.2758016,-0.14521 -0.1393296,-0.0485 -0.2615406,-0.0749 -0.3668977,-0.0795 -0.013229,-8.8e-4 -0.025665,-0.001 -0.038232,-0.001 z"
         style="color:#000000;font-style:normal;font-variant:normal;font-weight:normal;font-stretch:normal;font-size:medium;line-height:normal;font-family:'Bitstream Charter';-inkscape-font-specification:'Bitstream Charter';text-indent:0;text-align:start;text-decoration:none;text-decoration-line:none;letter-spacing:normal;word-spacing:normal;text-transform:none;writing-mode:lr-tb;direction:ltr;text-anchor:start;display:inline;overflow:visible;visibility:visible;fill:#000090;fill-opacity:1;fill-rule:nonzero;stroke:none;stroke-width:8.05581188;marker:none;enable-background:accumulate"
         inkscape:connector-curvature="0" />
      <path
         id="path4040-2"
         d="m 1.4526864,290.58851 c -0.057679,-10e-4 -0.1152789,0.0225 -0.1551781,0.0641 -0.039899,0.0417 -0.061436,0.10079 -0.057785,0.15836 l 0.2367227,3.75864 c 0.00476,0.0752 0.053393,0.14606 0.1219465,0.17737 l 3.1378259,1.43551 c 0.063024,0.0287 0.1402557,0.0236 0.198755,-0.0135 0.058499,-0.0371 0.096467,-0.10494 0.097393,-0.17419 l 0.059372,-4.06979 c 0,-0.0885 -0.060007,-0.17434 -0.1440921,-0.20191 L 1.514466,290.59877 c -0.019844,-0.006 -0.040825,-0.01 -0.06178,-0.0103 z m 0.9469702,1.41492 c 0.065061,-10e-4 0.1459177,0.0102 0.2430992,0.0349 0.12954,0.0328 0.270854,0.0829 0.4228042,0.15123 0.2439458,0.10961 0.4397904,0.2135 0.5890948,0.31117 0.1493043,0.0977 0.2756163,0.21783 0.3784599,0.36106 0.072258,0.0996 0.1312598,0.22072 0.1765564,0.36422 0.04535,0.14351 0.070379,0.27306 0.075221,0.38719 l 0.045138,1.0697 c 0.00503,0.11413 0.015346,0.20755 0.030903,0.27792 0.01561,0.0704 0.046514,0.16465 0.093424,0.28425 l -0.7640637,-0.34284 c -0.033338,-0.0762 -0.05498,-0.13254 -0.065723,-0.16945 -0.010848,-0.0369 -0.022489,-0.0929 -0.034846,-0.16707 -0.1016794,0.0693 -0.2040202,0.10479 -0.3072077,0.10769 -0.1411287,0.002 -0.3065992,-0.0387 -0.4972579,-0.12431 -0.2532856,-0.1138 -0.4489186,-0.26712 -0.5859198,-0.46003 -0.1369748,-0.1929 -0.2093912,-0.38804 -0.2177256,-0.58434 -0.00794,-0.18412 0.033099,-0.31418 0.1227137,-0.39035 0.089588,-0.0762 0.2601384,-0.0859 0.5122863,-0.0293 0.3023129,0.0672 0.4980516,0.10699 0.5875073,0.11956 0.089456,0.0126 0.184097,0.0191 0.2834745,0.019 -0.00503,-0.11413 -0.028919,-0.20341 -0.072072,-0.26762 -0.043259,-0.0642 -0.1169193,-0.11956 -0.2209006,-0.16628 -0.1332971,-0.0599 -0.2323306,-0.0805 -0.2969154,-0.0618 -0.050403,0.0147 -0.089641,0.0669 -0.1172104,0.15757 l -0.7814733,-0.4434 c 0.022754,-0.14204 0.059293,-0.24464 0.1108339,-0.3088 0.051567,-0.0642 0.1284552,-0.1056 0.2296319,-0.12431 0.018256,-0.003 0.038497,-0.005 0.060166,-0.006 z m 0.5637742,1.63504 c -0.051276,0.001 -0.087524,0.009 -0.1084792,0.0238 -0.04318,0.0298 -0.062918,0.077 -0.060193,0.14094 0.00317,0.0731 0.027755,0.14256 0.074427,0.20903 0.04662,0.0665 0.1128977,0.11943 0.1995488,0.15836 0.090646,0.0407 0.1743339,0.0532 0.2502164,0.038 0.07583,-0.0152 0.1279525,-0.0517 0.1575329,-0.10927 0.029607,-0.0576 0.042148,-0.14406 0.037227,-0.2597 l -0.00635,-0.14807 c -0.1100137,-0.005 -0.2245783,-0.0177 -0.3444081,-0.0372 -0.081597,-0.012 -0.1482725,-0.0171 -0.1995223,-0.0159 z"
         style="color:#000000;font-style:normal;font-variant:normal;font-weight:normal;font-stretch:normal;font-size:medium;line-height:normal;font-family:'Bitstream Charter';-inkscape-font-specification:'Bitstream Charter';text-indent:0;text-align:start;text-decoration:none;text-decoration-line:none;letter-spacing:normal;word-spacing:normal;text-transform:none;writing-mode:lr-tb;direction:ltr;text-anchor:start;display:inline;overflow:visible;visibility:visible;fill:#000090;fill-opacity:1;fill-rule:nonzero;stroke:none;stroke-width:4.37096691;marker:none;enable-background:accumulate"
         inkscape:connector-curvature="0" />
      <path
         id="path4042-3"
         d="m 7.5631591,290.32222 c -0.028919,0.002 -0.057547,0.01 -0.083344,0.0227 l -2.6936964,1.39109 c -0.067098,0.0348 -0.1122628,0.10829 -0.1129507,0.18387 l -0.044688,4.08433 c 0,0.0763 0.043471,0.15143 0.1108075,0.18731 0.067363,0.0359 0.154596,0.0309 0.2174081,-0.0125 l 2.471129,-1.70169 c 0.05162,-0.0355 0.085778,-0.0952 0.090223,-0.15767 l 0.266356,-3.77371 c 0.00397,-0.0592 -0.018256,-0.11975 -0.059716,-0.16197 -0.041751,-0.0422 -0.1022615,-0.0654 -0.1615281,-0.0619 z m -0.7114382,2.11154 c 0.00926,-1e-5 0.018785,2.1e-4 0.027464,8.8e-4 0.1423987,0.0105 0.2366698,0.0909 0.2813844,0.2423 l -0.6418527,0.4425 c -0.013758,-0.0593 -0.045111,-0.0921 -0.094483,-0.098 -0.049398,-0.006 -0.1183216,0.017 -0.206666,0.0675 -0.1115483,0.0637 -0.2050256,0.15239 -0.2805377,0.26721 -0.075512,0.11483 -0.1200415,0.24885 -0.1331913,0.40169 -0.011642,0.13621 0.013758,0.22018 0.076041,0.25175 0.062415,0.0316 0.147029,0.0172 0.2530475,-0.0434 0.088371,-0.0505 0.1642798,-0.11459 0.2281502,-0.19161 0.063844,-0.077 0.114644,-0.16825 0.152056,-0.27366 l 0.6345503,-0.29773 c -0.04617,0.14601 -0.1134005,0.28852 -0.20193,0.42661 -0.08853,0.13809 -0.1972205,0.26837 -0.3269192,0.39095 -0.1297252,0.12257 -0.2913592,0.23883 -0.4846108,0.34927 -0.1866371,0.10665 -0.3404394,0.17871 -0.4618303,0.21696 -0.1214437,0.0382 -0.2240227,0.0467 -0.3071547,0.0245 -0.083185,-0.0222 -0.1458913,-0.0682 -0.1881982,-0.13791 -0.042307,-0.0697 -0.056541,-0.18646 -0.042545,-0.3497 0.014552,-0.17052 0.057732,-0.32991 0.1293284,-0.47858 0.05244,-0.10906 0.1208352,-0.21911 0.2049198,-0.32995 0.084111,-0.11083 0.1691745,-0.20613 0.2547672,-0.28569 0.1358107,-0.12605 0.3062553,-0.24779 0.5116778,-0.36518 0.2691606,-0.15382 0.4745302,-0.23041 0.6165056,-0.2307 z"
         style="color:#000000;font-style:normal;font-variant:normal;font-weight:normal;font-stretch:normal;font-size:medium;line-height:normal;font-family:'Bitstream Charter';-inkscape-font-specification:'Bitstream Charter';text-indent:0;text-align:start;text-decoration:none;text-decoration-line:none;letter-spacing:normal;word-spacing:normal;text-transform:none;writing-mode:lr-tb;direction:ltr;text-anchor:start;display:inline;overflow:visible;visibility:visible;fill:#000090;fill-opacity:1;fill-rule:nonzero;stroke:none;stroke-width:8.05581188;marker:none;enable-background:accumulate"
         inkscape:connector-curvature="0" />
    </g>
  </g>
</svg>
