<svg height="580" width="580" xmlns="http://www.w3.org/2000/svg"><path d="m198.21875 397.58646v100.96289h56v-100.96289zm36.1663-227.16315a32 32 0 0 0 -23.09766 8.14844 32 32 0 0 0 -2.41992 45.18945l60.46289 67.30859a32 32 0 0 0 45.18946 2.41992 32 32 0 0 0 2.42187-45.18945l-60.46289-67.30859a32 32 0 0 0 -22.09375-10.56836zm157.27963 57.93744a21.440131 23.503657 0 0 0 -7.09017.78033l-96.80765 29.04576a21.437987 23.501307 0 0 0 -15.0195 28.86981 21.437987 23.501307 0 0 0 26.33689 16.46506l89.6355-26.89224 96.5826 44.85483a21.437987 23.501307 0 0 0 28.10244-12.47168 21.437987 23.501307 0 0 0 -11.3767-30.80721l-103.432-48.03539a21.440131 23.503657 0 0 0 -6.93141-1.80927zm-175.53389-103.27404a43.636059 43.636059 0 0 1 -43.63606 43.63604 43.636059 43.636059 0 0 1 -43.63606-43.63604 43.636059 43.636059 0 0 1 43.63606-43.636063 43.636059 43.636059 0 0 1 43.63606 43.636063zm192.98204 272.49975v100.96289h56v-100.96289zm-332.269079-224.82422-42.9375 35.94922 17.97656 21.46875 173.019529 206.64648 154.87305-43.21875 118.00391 52.38672 25.59179 11.36133 22.72266-51.1836-25.5918-11.36132-136.39648-60.55274-139.45703 38.91992-149.830089-178.94921z" fill="none" opacity=".8" stroke="#fff" stroke-linejoin="round" stroke-width="64"/><path d="m198.21875 397.58646v100.96289h56v-100.96289zm36.1663-227.16315a32 32 0 0 0 -23.09766 8.14844 32 32 0 0 0 -2.41992 45.18945l60.46289 67.30859a32 32 0 0 0 45.18946 2.41992 32 32 0 0 0 2.42187-45.18945l-60.46289-67.30859a32 32 0 0 0 -22.09375-10.56836zm157.27963 57.93744a21.440131 23.503657 0 0 0 -7.09017.78033l-96.80765 29.04576a21.437987 23.501307 0 0 0 -15.0195 28.86981 21.437987 23.501307 0 0 0 26.33689 16.46506l89.6355-26.89224 96.5826 44.85483a21.437987 23.501307 0 0 0 28.10244-12.47168 21.437987 23.501307 0 0 0 -11.3767-30.80721l-103.432-48.03539a21.440131 23.503657 0 0 0 -6.93141-1.80927zm-175.53389-103.27404a43.636059 43.636059 0 0 1 -43.63606 43.63604 43.636059 43.636059 0 0 1 -43.63606-43.63604 43.636059 43.636059 0 0 1 43.63606-43.636063 43.636059 43.636059 0 0 1 43.63606 43.636063zm192.98204 272.49975v100.96289h56v-100.96289zm-332.269079-224.82422-42.9375 35.94922 17.97656 21.46875 173.019529 206.64648 154.87305-43.21875 118.00391 52.38672 25.59179 11.36133 22.72266-51.1836-25.5918-11.36132-136.39648-60.55274-139.45703 38.91992-149.830089-178.94921z" fill="#743a00"/></svg>