<svg height="64" width="64" xmlns="http://www.w3.org/2000/svg">
	<path d="m13.982896 25.099486a1.299592 1.299592 0 0 0 -.912837.345808c-1.543449 1.389372-2.494362 3.54191-2.731114 5.889241-.23675 2.347332.285895 4.942364 1.976266 7.051871a1.299592 1.299592 0 1 0 2.028083-1.625175c-1.202159-1.500236-1.598145-3.385118-1.418537-5.165911.179609-1.780796.980192-3.40457 1.884263-4.218388a1.299592 1.299592 0 0 0 -.826124-2.277446zm-.236169-5.078162v.01417c-2.558418.07515-4.780815 1.591402-6.2688897 3.729821-1.5262888 2.193334-2.3988442 5.079389-2.3988438 8.234578 0 3.155189.872555 6.041455 2.3988438 8.234791 1.5262891 2.193331 3.8221887 3.743991 6.4638937 3.743991.01354 0 .02657-.0028.04018-.0028v.0028h36.076358.337342v-.02455c2.49786-.126875 4.666374-1.621126 6.126551-3.719458 1.526288-2.193336 2.398845-5.0796 2.398845-8.234791 0-3.155189-.872557-6.041244-2.398845-8.234579-1.506304-2.164623-3.763823-3.696679-6.361945-3.736586v-.0074h-.101948-36.116542zm.195 3.465233c1.296098-.000005 2.565355.742955 3.619627 2.25798 1.054274 1.515033 1.777878 3.751771 1.777878 6.255357 0 2.503587-.723604 4.740535-1.777878 6.255562-1.054272 1.515032-2.323529 2.257985-3.619627 2.257985-1.296099 0-2.565144-.742953-3.619417-2.257985-1.0542732-1.515027-1.7780876-3.751981-1.7780876-6.255562-.0000022-2.503586.7238144-4.740324 1.7780876-6.255357 1.054278-1.515025 2.323322-2.25798 3.619421-2.25798zm37.509698.03848a1.299592 1.299592 0 0 1 1.319135 1.31786s-.107231.516697-.107242.516702c0 0-.211922.336275-.211922.336284-.000015.000019-.336863.275977-.336922.276012-.000056.00003-.13947.06986-.185286.08713-.04582.0173-.07986.02742-.108075.03532-.112864.03162-.148429.03302-.182538.03764-.06819.0093-.09846.0106-.142751.01354-.08859.0056-.211433.0106-.449015.01707-.475156.01286-1.398084.02943-3.239982.0461-3.683798.03331-11.037683.06662-25.743477.06662a1.299592 1.299592 0 1 1 0-2.598921c14.701877 0 22.05188-.0332 25.719998-.06641 1.834059-.01659 2.749201-.0334 3.193028-.04546.130975-.0034.151667-.0052.209593-.0077a1.299592 1.299592 0 0 1 .265433-.03194zm2.388903 5.432401a1.299592 1.299592 0 0 1 1.318923 1.317861s-.107016.516485-.107016.516485c-.000003.000004-.212142.336497-.212142.3365-.000015.000015-.336651.275767-.336711.2758-.000054.000031-.139691.06986-.185486.08713-.04582.0173-.07963.02761-.10787.03553-.112864.03165-.148429.03303-.182516.03764-.06821.0093-.09868.01038-.142973.01331-.08861.0056-.211233.01091-.448807.0173-.475155.01286-1.398085.02943-3.239982.0461-3.683794.03331-11.037681.06662-25.743477.06662a1.299592 1.299592 0 1 1 0-2.598919c14.701876 0 22.051673-.0334 25.719784-.06662 1.834068-.01664 2.749203-.03323 3.193035-.04526.130977-.0035.151644-.0051.209593-.0076a1.299592 1.299592 0 0 1 .265645-.03194z" fill="none" opacity=".8" stroke="#ff0" stroke-linejoin="round" stroke-width="6.93045"/>
	<path d="m13.982896 25.099486a1.299592 1.299592 0 0 0 -.912837.345808c-1.543449 1.389372-2.494362 3.54191-2.731114 5.889241-.23675 2.347332.285895 4.942364 1.976266 7.051871a1.299592 1.299592 0 1 0 2.028083-1.625175c-1.202159-1.500236-1.598145-3.385118-1.418537-5.165911.179609-1.780796.980192-3.40457 1.884263-4.218388a1.299592 1.299592 0 0 0 -.826124-2.277446zm-.236169-5.078162v.01417c-2.558418.07515-4.780815 1.591402-6.2688897 3.729821-1.5262888 2.193334-2.3988442 5.079389-2.3988438 8.234578 0 3.155189.872555 6.041455 2.3988438 8.234791 1.5262891 2.193331 3.8221887 3.743991 6.4638937 3.743991.01354 0 .02657-.0028.04018-.0028v.0028h36.076358.337342v-.02455c2.49786-.126875 4.666374-1.621126 6.126551-3.719458 1.526288-2.193336 2.398845-5.0796 2.398845-8.234791 0-3.155189-.872557-6.041244-2.398845-8.234579-1.506304-2.164623-3.763823-3.696679-6.361945-3.736586v-.0074h-.101948-36.116542zm.195 3.465233c1.296098-.000005 2.565355.742955 3.619627 2.25798 1.054274 1.515033 1.777878 3.751771 1.777878 6.255357 0 2.503587-.723604 4.740535-1.777878 6.255562-1.054272 1.515032-2.323529 2.257985-3.619627 2.257985-1.296099 0-2.565144-.742953-3.619417-2.257985-1.0542732-1.515027-1.7780876-3.751981-1.7780876-6.255562-.0000022-2.503586.7238144-4.740324 1.7780876-6.255357 1.054278-1.515025 2.323322-2.25798 3.619421-2.25798zm37.509698.03848a1.299592 1.299592 0 0 1 1.319135 1.31786s-.107231.516697-.107242.516702c0 0-.211922.336275-.211922.336284-.000015.000019-.336863.275977-.336922.276012-.000056.00003-.13947.06986-.185286.08713-.04582.0173-.07986.02742-.108075.03532-.112864.03162-.148429.03302-.182538.03764-.06819.0093-.09846.0106-.142751.01354-.08859.0056-.211433.0106-.449015.01707-.475156.01286-1.398084.02943-3.239982.0461-3.683798.03331-11.037683.06662-25.743477.06662a1.299592 1.299592 0 1 1 0-2.598921c14.701877 0 22.05188-.0332 25.719998-.06641 1.834059-.01659 2.749201-.0334 3.193028-.04546.130975-.0034.151667-.0052.209593-.0077a1.299592 1.299592 0 0 1 .265433-.03194zm2.388903 5.432401a1.299592 1.299592 0 0 1 1.318923 1.317861s-.107016.516485-.107016.516485c-.000003.000004-.212142.336497-.212142.3365-.000015.000015-.336651.275767-.336711.2758-.000054.000031-.139691.06986-.185486.08713-.04582.0173-.07963.02761-.10787.03553-.112864.03165-.148429.03303-.182516.03764-.06821.0093-.09868.01038-.142973.01331-.08861.0056-.211233.01091-.448807.0173-.475155.01286-1.398085.02943-3.239982.0461-3.683794.03331-11.037681.06662-25.743477.06662a1.299592 1.299592 0 1 1 0-2.598919c14.701876 0 22.051673-.0334 25.719784-.06662 1.834068-.01664 2.749203-.03323 3.193035-.04526.130977-.0035.151644-.0051.209593-.0076a1.299592 1.299592 0 0 1 .265645-.03194z" fill="#f00" stroke-width=".108288"/>
</svg>
