<?xml version="1.0" encoding="UTF-8" standalone="no"?>
<svg
   version="1.0"
   width="64"
   height="64"
   id="svg5"
   sodipodi:docname="s_log2-src.svg"
   inkscape:version="1.1.1 (3bf5ae0d25, 2021-09-20)"
   xmlns:inkscape="http://www.inkscape.org/namespaces/inkscape"
   xmlns:sodipodi="http://sodipodi.sourceforge.net/DTD/sodipodi-0.dtd"
   xmlns="http://www.w3.org/2000/svg"
   xmlns:svg="http://www.w3.org/2000/svg">
  <defs
     id="defs9" />
  <sodipodi:namedview
     id="namedview7"
     pagecolor="#ffffff"
     bordercolor="#666666"
     borderopacity="1.0"
     inkscape:pageshadow="2"
     inkscape:pageopacity="0.0"
     inkscape:pagecheckerboard="0"
     showgrid="false"
     inkscape:zoom="3.5062743"
     inkscape:cx="-12.691534"
     inkscape:cy="40.213625"
     inkscape:current-layer="svg5"
     width="120px" />
  <metadata
     id="metadata10" />
  <path
     id="path1005-3"
     d="m 13.982896,25.099486 a 1.299592,1.299592 0 0 0 -0.912837,0.345808 c -1.543449,1.389372 -2.494362,3.54191 -2.731114,5.889241 -0.23675,2.347332 0.285895,4.942364 1.976266,7.051871 a 1.299592,1.299592 0 1 0 2.028083,-1.625175 c -1.202159,-1.500236 -1.598145,-3.385118 -1.418537,-5.165911 0.179609,-1.780796 0.980192,-3.40457 1.884263,-4.218388 a 1.299592,1.299592 0 0 0 -0.826124,-2.277446 z m -0.236169,-5.078162 v 0.01417 c -2.558418,0.07515 -4.780815,1.591402 -6.2688897,3.729821 -1.5262888,2.193334 -2.3988442,5.079389 -2.3988438,8.234578 0,3.155189 0.872555,6.041455 2.3988438,8.234791 1.5262891,2.193331 3.8221887,3.743991 6.4638937,3.743991 0.01354,0 0.02657,-0.0028 0.04018,-0.0028 v 0.0028 h 36.076358 0.337342 v -0.02455 c 2.49786,-0.126875 4.666374,-1.621126 6.126551,-3.719458 1.526288,-2.193336 2.398845,-5.0796 2.398845,-8.234791 0,-3.155189 -0.872557,-6.041244 -2.398845,-8.234579 -1.506304,-2.164623 -3.763823,-3.696679 -6.361945,-3.736586 v -0.0074 H 50.058269 13.941727 Z m 0.195,3.465233 c 1.296098,-5e-6 2.565355,0.742955 3.619627,2.25798 1.054274,1.515033 1.777878,3.751771 1.777878,6.255357 0,2.503587 -0.723604,4.740535 -1.777878,6.255562 -1.054272,1.515032 -2.323529,2.257985 -3.619627,2.257985 -1.296099,0 -2.565144,-0.742953 -3.619417,-2.257985 -1.0542732,-1.515027 -1.7780876,-3.751981 -1.7780876,-6.255562 -2.2e-6,-2.503586 0.7238144,-4.740324 1.7780876,-6.255357 1.054278,-1.515025 2.323322,-2.25798 3.619421,-2.25798 z m 37.509698,0.03848 a 1.299592,1.299592 0 0 1 1.319135,1.31786 c 0,0 -0.107231,0.516697 -0.107242,0.516702 0,0 -0.211922,0.336275 -0.211922,0.336284 -1.5e-5,1.9e-5 -0.336863,0.275977 -0.336922,0.276012 -5.6e-5,3e-5 -0.13947,0.06986 -0.185286,0.08713 -0.04582,0.0173 -0.07986,0.02742 -0.108075,0.03532 -0.112864,0.03162 -0.148429,0.03302 -0.182538,0.03764 -0.06819,0.0093 -0.09846,0.0106 -0.142751,0.01354 -0.08859,0.0056 -0.211433,0.0106 -0.449015,0.01707 -0.475156,0.01286 -1.398084,0.02943 -3.239982,0.0461 -3.683798,0.03331 -11.037683,0.06662 -25.743477,0.06662 a 1.299592,1.299592 0 1 1 0,-2.598921 c 14.701877,0 22.05188,-0.0332 25.719998,-0.06641 1.834059,-0.01659 2.749201,-0.0334 3.193028,-0.04546 0.130975,-0.0034 0.151667,-0.0052 0.209593,-0.0077 a 1.299592,1.299592 0 0 1 0.265433,-0.03194 z m 2.388903,5.432401 a 1.299592,1.299592 0 0 1 1.318923,1.317861 c 0,0 -0.107016,0.516485 -0.107016,0.516485 -3e-6,4e-6 -0.212142,0.336497 -0.212142,0.3365 -1.5e-5,1.5e-5 -0.336651,0.275767 -0.336711,0.2758 -5.4e-5,3.1e-5 -0.139691,0.06986 -0.185486,0.08713 -0.04582,0.0173 -0.07963,0.02761 -0.10787,0.03553 -0.112864,0.03165 -0.148429,0.03303 -0.182516,0.03764 -0.06821,0.0093 -0.09868,0.01038 -0.142973,0.01331 -0.08861,0.0056 -0.211233,0.01091 -0.448807,0.0173 -0.475155,0.01286 -1.398085,0.02943 -3.239982,0.0461 -3.683794,0.03331 -11.037681,0.06662 -25.743477,0.06662 a 1.299592,1.299592 0 1 1 0,-2.598919 c 14.701876,0 22.051673,-0.0334 25.719784,-0.06662 1.834068,-0.01664 2.749203,-0.03323 3.193035,-0.04526 0.130977,-0.0035 0.151644,-0.0051 0.209593,-0.0076 a 1.299592,1.299592 0 0 1 0.265645,-0.03194 z"
     shape-rendering="auto"
     mix-blend-mode="normal"
     isolation="auto"
     color-interpolation-filters="linearRGB"
     white-space="normal"
     opacity="0.8"
     fill="none"
     solid-opacity="1"
     image-rendering="auto"
     solid-color="#000000"
     stroke="#ffffff"
     color="#000000"
     stroke-width="64"
     color-rendering="auto"
     vector-effect="none"
     shape-padding="0"
     color-interpolation="sRGB"
     style="font-variation-settings:normal;display:inline;opacity:0.8;vector-effect:none;fill:none;fill-opacity:1;stroke:#ffff00;stroke-width:6.93045;stroke-linecap:butt;stroke-linejoin:round;stroke-miterlimit:4;stroke-dasharray:none;stroke-dashoffset:0;stroke-opacity:1;-inkscape-stroke:none;stop-color:#000000;stop-opacity:1" />
  <path
     id="path1005"
     d="m 13.982896,25.099486 a 1.299592,1.299592 0 0 0 -0.912837,0.345808 c -1.543449,1.389372 -2.494362,3.54191 -2.731114,5.889241 -0.23675,2.347332 0.285895,4.942364 1.976266,7.051871 a 1.299592,1.299592 0 1 0 2.028083,-1.625175 c -1.202159,-1.500236 -1.598145,-3.385118 -1.418537,-5.165911 0.179609,-1.780796 0.980192,-3.40457 1.884263,-4.218388 a 1.299592,1.299592 0 0 0 -0.826124,-2.277446 z m -0.236169,-5.078162 v 0.01417 c -2.558418,0.07515 -4.780815,1.591402 -6.2688897,3.729821 -1.5262888,2.193334 -2.3988442,5.079389 -2.3988438,8.234578 0,3.155189 0.872555,6.041455 2.3988438,8.234791 1.5262891,2.193331 3.8221887,3.743991 6.4638937,3.743991 0.01354,0 0.02657,-0.0028 0.04018,-0.0028 v 0.0028 h 36.076358 0.337342 v -0.02455 c 2.49786,-0.126875 4.666374,-1.621126 6.126551,-3.719458 1.526288,-2.193336 2.398845,-5.0796 2.398845,-8.234791 0,-3.155189 -0.872557,-6.041244 -2.398845,-8.234579 -1.506304,-2.164623 -3.763823,-3.696679 -6.361945,-3.736586 v -0.0074 H 50.058269 13.941727 Z m 0.195,3.465233 c 1.296098,-5e-6 2.565355,0.742955 3.619627,2.25798 1.054274,1.515033 1.777878,3.751771 1.777878,6.255357 0,2.503587 -0.723604,4.740535 -1.777878,6.255562 -1.054272,1.515032 -2.323529,2.257985 -3.619627,2.257985 -1.296099,0 -2.565144,-0.742953 -3.619417,-2.257985 -1.0542732,-1.515027 -1.7780876,-3.751981 -1.7780876,-6.255562 -2.2e-6,-2.503586 0.7238144,-4.740324 1.7780876,-6.255357 1.054278,-1.515025 2.323322,-2.25798 3.619421,-2.25798 z m 37.509698,0.03848 a 1.299592,1.299592 0 0 1 1.319135,1.31786 c 0,0 -0.107231,0.516697 -0.107242,0.516702 0,0 -0.211922,0.336275 -0.211922,0.336284 -1.5e-5,1.9e-5 -0.336863,0.275977 -0.336922,0.276012 -5.6e-5,3e-5 -0.13947,0.06986 -0.185286,0.08713 -0.04582,0.0173 -0.07986,0.02742 -0.108075,0.03532 -0.112864,0.03162 -0.148429,0.03302 -0.182538,0.03764 -0.06819,0.0093 -0.09846,0.0106 -0.142751,0.01354 -0.08859,0.0056 -0.211433,0.0106 -0.449015,0.01707 -0.475156,0.01286 -1.398084,0.02943 -3.239982,0.0461 -3.683798,0.03331 -11.037683,0.06662 -25.743477,0.06662 a 1.299592,1.299592 0 1 1 0,-2.598921 c 14.701877,0 22.05188,-0.0332 25.719998,-0.06641 1.834059,-0.01659 2.749201,-0.0334 3.193028,-0.04546 0.130975,-0.0034 0.151667,-0.0052 0.209593,-0.0077 a 1.299592,1.299592 0 0 1 0.265433,-0.03194 z m 2.388903,5.432401 a 1.299592,1.299592 0 0 1 1.318923,1.317861 c 0,0 -0.107016,0.516485 -0.107016,0.516485 -3e-6,4e-6 -0.212142,0.336497 -0.212142,0.3365 -1.5e-5,1.5e-5 -0.336651,0.275767 -0.336711,0.2758 -5.4e-5,3.1e-5 -0.139691,0.06986 -0.185486,0.08713 -0.04582,0.0173 -0.07963,0.02761 -0.10787,0.03553 -0.112864,0.03165 -0.148429,0.03303 -0.182516,0.03764 -0.06821,0.0093 -0.09868,0.01038 -0.142973,0.01331 -0.08861,0.0056 -0.211233,0.01091 -0.448807,0.0173 -0.475155,0.01286 -1.398085,0.02943 -3.239982,0.0461 -3.683794,0.03331 -11.037681,0.06662 -25.743477,0.06662 a 1.299592,1.299592 0 1 1 0,-2.598919 c 14.701876,0 22.051673,-0.0334 25.719784,-0.06662 1.834068,-0.01664 2.749203,-0.03323 3.193035,-0.04526 0.130977,-0.0035 0.151644,-0.0051 0.209593,-0.0076 a 1.299592,1.299592 0 0 1 0.265645,-0.03194 z"
     shape-rendering="auto"
     mix-blend-mode="normal"
     isolation="auto"
     color-interpolation-filters="linearRGB"
     white-space="normal"
     fill="#666666"
     solid-opacity="1"
     image-rendering="auto"
     solid-color="#000000"
     color="#000000"
     color-rendering="auto"
     vector-effect="none"
     shape-padding="0"
     color-interpolation="sRGB"
     style="font-variation-settings:normal;display:inline;opacity:1;vector-effect:none;fill:#ff0000;fill-opacity:1;stroke-width:0.108288;stroke-linecap:butt;stroke-linejoin:miter;stroke-miterlimit:4;stroke-dasharray:none;stroke-dashoffset:0;stroke-opacity:1;-inkscape-stroke:none;stop-color:#000000;stop-opacity:1" />
</svg>
