<svg width="120" height="120" version="1.0" xmlns="http://www.w3.org/2000/svg">
 <title>mall</title>
 <path d="m54.915 5.9057-48.613 27.007-0.066889 11.131c1.1252 1.775 3.6734 2.5852 5.5181 2.9205l-0.049731 56.168c0 5.4014 0 10.803 5.4015 10.803h86.423c5.4014 0 5.4014-5.4015 5.4014-10.803v-56.622c1.9734-0.11389 3.9125-1.4561 5.4015-2.7939v-10.803l-48.613-27.007z" fill="#ffc400" fill-rule="evenodd" stop-color="#000000" stroke="#f2b800" stroke-width="1.6955" style="-inkscape-stroke:none;font-variation-settings:normal"/>
 <path d="m11.703 38.314 48.613-27.007 48.613 27.007" fill="none" stroke="#5d0000" stroke-linecap="round" stroke-linejoin="round" stroke-width="5.4014"/>
 <path d="m101.82 39.787-11.192 6.3414-7.5836 35.241-0.41753 19.752h-47.314" fill="none" stroke="#5d0000" stroke-linecap="round" stroke-linejoin="round" stroke-width="10.193"/>
 <g>
  <path d="m89.302 52.377h-61.385l7.4749 28.994h47.651z" fill="#ffc400" stop-color="#000000" stroke="#5d0000" stroke-width="9.729" style="font-variation-settings:normal"/>
  <path d="m48.413 108.99c-9.06e-4 3.5959-2.9202 6.5104-6.5208 6.5097-3.6006-6.9e-4 -6.5188-2.9164-6.5183-6.5122 6.8e-4 -3.5959 2.9197-6.5106 6.5204-6.5102 3.6006 4.5e-4 6.5192 2.9156 6.519 6.5115" fill="#5d0000" stop-color="#000000" stroke="#f2b800" stroke-width="2.0674" style="font-variation-settings:normal"/>
  <path d="m75.848 108.99c-9.06e-4 3.5959-2.9202 6.5104-6.5208 6.5097-3.6006-6.9e-4 -6.5188-2.9164-6.5183-6.5122 6.8e-4 -3.5959 2.9197-6.5106 6.5204-6.5102 3.6006 4.5e-4 6.5192 2.9156 6.519 6.5115" fill="#5d0000" stop-color="#000000" stroke="#f2b800" stroke-width="2.0674" style="-inkscape-stroke:none;font-variation-settings:normal"/>
 </g>
</svg>
