<svg width="24" height="24" version="1.1" viewBox="0 0 6.35 6.35" xmlns="http://www.w3.org/2000/svg">
 <g transform="translate(-.60724 -290.21)">
  <rect x=".87183" y="290.47" width="5.8208" height="5.8208" rx="1.0583" fill="#0042e8" stroke="#fff" stroke-width=".52917"/>
  <rect x=".87183" y="290.47" width="5.8208" height="5.8208" rx="1.0583" fill="#0042e8"/>
  <g transform="matrix(.14677 0 0 .14677 -195.15 290.21)" fill="#fff">
   <path d="m1345.3 35.711v-28.633h9.2773c3.5156 2.86e-5 5.8073.14326 6.875.42969 1.6406.42972 3.0143 1.364 4.1211 2.8027 1.1067 1.4388 1.6601 3.2975 1.6602 5.5762-1e-4 1.7578-.3191 3.2357-.9571 4.4336-.638 1.1979-1.4486 2.1387-2.4316 2.8223-.9831.68361-1.9825 1.1361-2.9981 1.3574-1.3802.27345-3.3789.41017-5.9961.41016h-3.7695v10.801zm5.7812-23.789v8.125h3.1641c2.2786 1.6e-5 3.802-.14972 4.5703-.44922.7682-.29946 1.3704-.76821 1.8066-1.4062.4362-.638.6543-1.3802.6543-2.2266 0-1.0416-.306-1.901-.9179-2.5781-.612-.67706-1.3868-1.1002-2.3243-1.2695-.6901-.13018-2.0768-.19529-4.1601-.19531z" fill="#fff"/>
  </g>
 </g>
</svg>
