<svg viewBox="0 0 24 24" xmlns="http://www.w3.org/2000/svg">
	<rect fill="#0042e8" height="22" rx="4" stroke="#fff" stroke-width="2" width="22" x="1" y="1"/>
	<rect fill="#0042e8" height="22" rx="4" width="22" x="1" y="1"/>
	<path d="m6.5306 19.923v-15.883h5.1462c1.9501.0000157 3.2213.079466 3.8136.23835.91005.23837 1.672.7566 2.286 1.5547.61389.79812.92087 1.8292.92092 3.0931-.000055.97508-.17701 1.7949-.53091 2.4593-.3539.6645-.80355 1.1863-1.3488 1.5655-.54533.3792-1.0997.63019-1.6631.75297-.7656.15168-1.8743.22752-3.3261.22752h-2.091v5.9913zm3.2069-13.196v4.507h1.7551c1.264.000009 2.109-.08305 2.5352-.24918.42612-.16611.76017-.42613 1.0021-.78006.24196-.3539.36294-.7656.36294-1.2351 0-.57781-.16974-1.0545-.50916-1.4301-.33948-.37557-.76926-.61031-1.2893-.70422-.3828-.072214-1.152-.10833-2.3076-.10834z" fill="#fff"/>
	<path d="m23.019 10.985-12 12.039h8c2.1769 0 4-1.7075 4-4.0391z" fill="#f6cd0b"/>
</svg>
