<svg xmlns="http://www.w3.org/2000/svg" width="14" height="14"><path d="M4.615.039L3.68.063C-.205 2.286 6.813 2.65 2.496 5.287l.852-.01C7.397 2.463.341 2.257 4.615.039zm3.463 0l-.935.024C3.258 2.286 10.275 2.65 5.959 5.287l.854-.01c4.048-2.814-3.009-3.02 1.265-5.238zm3.473 0l-.936.023C6.731 2.286 13.748 2.65 9.432 5.287l.854-.01c4.048-2.814-3.01-3.02 1.265-5.238zM1.609 6.59c-.007 2.474.006 4.941.006 7.41h1.459v-1.754h7.854V14h1.459c.002-2.512.004-5.213.004-7.41H1.609zm1.463 1.223h7.855v3.082H3.074v-1.49h-.002V7.813zm1.533.646a.895.895 0 100 1.79.895.895 0 000-1.79zm2.383.006a.895.895 0 100 1.79.895.895 0 000-1.79zm2.407.017a.895.895 0 100 1.79.895.895 0 000-1.79z"/></svg>