<?xml version="1.0" encoding="utf-8"?>
<!-- Generator: Adobe Illustrator 14.0.0, SVG Export Plug-In . SVG Version: 6.00 Build 43363)  -->
<!DOCTYPE svg PUBLIC "-//W3C//DTD SVG 1.1//EN" "http://www.w3.org/Graphics/SVG/1.1/DTD/svg11.dtd">
<svg version="1.1"
	 id="svg109" xmlns:dc="http://purl.org/dc/elements/1.1/" xmlns:rdf="http://www.w3.org/1999/02/22-rdf-syntax-ns#" xmlns:cc="http://creativecommons.org/ns#" xmlns:svg="http://www.w3.org/2000/svg"
	 xmlns="http://www.w3.org/2000/svg" xmlns:xlink="http://www.w3.org/1999/xlink" x="0px" y="0px" width="14px" height="14px"
	 viewBox="0 0 14 14" enable-background="new 0 0 14 14" xml:space="preserve">
<path id="path4157-6" d="M5.861-0.012c1.633,3.353-6.937,5.55,0.516,10.143l0.322-0.117C4.844,7.329,12.375,4.181,5.861-0.012z
	 M9.25,3.424c1.051,3.088-2.536,3.972-1.41,6.174l1.689-0.613C10.207,7.331,11.943,5.998,9.25,3.424z M1.475,8.998
	C1.199,9.008,0.983,9.24,0.993,9.516C1,9.723,1.134,9.903,1.33,9.971l4.215,1.533l-4.213,1.531
	c-0.257,0.094-0.389,0.377-0.296,0.633c0.093,0.256,0.376,0.389,0.632,0.297l5.322-1.936l5.34,1.941
	c0.26,0.094,0.547-0.041,0.641-0.301s-0.041-0.547-0.301-0.641l0,0l-4.215-1.533l4.213-1.531c0.258-0.09,0.395-0.371,0.305-0.629
	c-0.069-0.197-0.254-0.33-0.463-0.332c-0.061,0-0.121,0.01-0.178,0.031L7.01,10.971L1.67,9.029C1.607,9.006,1.541,8.996,1.475,8.998
	z"/>
</svg>
