<?xml version="1.0" encoding="utf-8"?>
<!-- Generator: Adobe Illustrator 14.0.0, SVG Export Plug-In . SVG Version: 6.00 Build 43363)  -->
<!DOCTYPE svg PUBLIC "-//W3C//DTD SVG 1.1//EN" "http://www.w3.org/Graphics/SVG/1.1/DTD/svg11.dtd">
<svg version="1.1"
	 id="svg8" xmlns:dc="http://purl.org/dc/elements/1.1/" xmlns:rdf="http://www.w3.org/1999/02/22-rdf-syntax-ns#" xmlns:cc="http://creativecommons.org/ns#" xmlns:svg="http://www.w3.org/2000/svg"
	 xmlns="http://www.w3.org/2000/svg" xmlns:xlink="http://www.w3.org/1999/xlink" x="0px" y="0px" width="14px" height="14px"
	 viewBox="0 0 14 14" enable-background="new 0 0 14 14" xml:space="preserve">
<path id="bbq.svg" d="M4.615,0.039L3.68,0.063C-0.205,2.286,6.813,2.65,2.496,5.287l0.852-0.01C7.397,2.463,0.341,2.257,4.615,0.039
	L4.615,0.039z M8.078,0.039L7.143,0.063C3.258,2.286,10.275,2.65,5.959,5.287l0.854-0.01C10.861,2.463,3.804,2.257,8.078,0.039
	L8.078,0.039z M11.551,0.039l-0.936,0.023C6.731,2.286,13.748,2.65,9.432,5.287l0.854-0.01C14.334,2.463,7.276,2.257,11.551,0.039
	L11.551,0.039z M1.609,6.59C1.602,9.064,1.615,11.531,1.615,14h1.459v-1.754h7.854V14h1.459c0.002-2.512,0.004-5.213,0.004-7.41
	H1.609z M3.072,7.813h7.855v3.082H3.074v-1.49H3.072V7.813z M4.605,8.459c-0.494,0-0.894,0.4-0.895,0.895
	c0,0.494,0.4,0.895,0.895,0.895S5.5,9.848,5.5,9.354S5.1,8.459,4.605,8.459z M6.988,8.465c-0.494,0-0.895,0.4-0.895,0.895
	s0.4,0.895,0.895,0.895s0.895-0.4,0.895-0.895S7.482,8.465,6.988,8.465z M9.395,8.482C8.9,8.482,8.5,8.883,8.5,9.377
	s0.4,0.895,0.895,0.895s0.895-0.4,0.895-0.895S9.889,8.482,9.395,8.482z"/>
</svg>
