<svg width="32" height="32" version="1.1" viewBox="0 0 8.4667 8.4667" xmlns="http://www.w3.org/2000/svg" xmlns:xlink="http://www.w3.org/1999/xlink">
 <defs>
  <radialGradient id="radialGradient5308" cx="2865" cy="237" r="15" gradientTransform="matrix(.26458 0 0 .26458 -753.28 229.36)" gradientUnits="userSpaceOnUse">
   <stop stop-color="#1279ff" offset="0"/>
   <stop stop-color="#0c76ff" offset="1"/>
  </radialGradient>
 </defs>
 <g transform="translate(-.52149 -287.83)">
  <rect x=".78608" y="288.1" width="7.9375" height="7.9375" rx="1.0583" fill="#1279ff" stroke="#fff" stroke-width=".52917"/>
  <rect x=".78608" y="288.1" width="7.9375" height="7.9375" rx="1.0583" fill="url(#radialGradient5308)"/>
  <g transform="translate(1.3511 1.5988)">
   <path d="m.2453 290.5v2.6376h6.3252l-6.3253-2.6376z" fill="#ccc"/>
   <path d="m3.0914 288.39.84905.35293c.1311.0545.23667.21269.23667.35469v.81029c0 .142-.10557.21244-.23667.15793l-.84905-.35293c-.1311-.0545-.23667-.21269-.23667-.35469v-.81028c0-.142.10557-.21244.23667-.15794zm1.8373.76374.87955.36561c.12269.051.22143.19899.22143.33182v.84336c0 .13284-.098743.19873-.22143.14774l-.87955-.36562c-.12266-.051-.2214-.19897-.2214-.33181v-.84336c0-.13283.098743-.19873.2214-.14774zm-3.1621-1.5311.47958.19936v1.5958l-.66974-.2784c-.15555-.0647-.42489-.37083-.33073-.68318zm-.21495-.10289-.79375 1.2485v.45476l-.52091-.21496v.28112l.52091.21496v.21497c0 .17275.2.44019.35555.50436l5.4487 2.2654v-3.2329l-4.101-1.7115c-.46448-.17692-.70279-.33177-.90951-.0248z" fill="#fff"/>
  </g>
 </g>
</svg>
