<svg width="26" height="26" version="1.1" viewBox="0 0 6.88 6.88" xmlns="http://www.w3.org/2000/svg">
 <g transform="translate(-.592 -290)">
  <rect x=".856" y="290" width="6.35" height="6.35" rx="1.27" fill="#00b100" stroke="#ffffff" stroke-width=".529"/>
  <rect x=".856" y="290" width="6.35" height="6.35" rx="1.27" fill="#009500"/>
  <g transform="matrix(.00848 0 0 .00848 1.37 291)" fill="#ffffff">
   <g fill="#ffffff">
    <g fill="#ffffff">
     <g fill="#ffffff">
      <path d="m99.8 446c-6.7 12-12 30.1-12 41.5 0 2.65 0 6.02.656 10.7l-83.7-144c-2.68-4.67-4.68-11.4-4.68-17.4 0-6.05 2-13.4 4.68-18.1l40.2-70.3-44.9-25.4 146-2.7 71 128-45.5-26.1zm64.3-406c12.7-22.1 33.5-34.2 58.9-34.2 27.5 0 48.9 12.7 64.3 38.8l22.8 38.2-79.1 137-128-74.4zm9.35 522c-38.2 0-69.6-31.5-69.6-69.6 0-10.7 4.7-28.8 11.4-40.2l21.4-38.2h159v148h-122zm127-526c-10-17.4-23.4-29.5-39.5-36.2h165c14.7 0 26.1 6.05 32.8 17.4l40.9 69.6 44.2-26.1-71 127-145-2.05 44.9-25.4zm254 379c20.1 0 36.8-5.36 50.9-16.1l-83.1 145c-6.7 11.4-18.7 18.1-32.8 18.1h-78.4v51.6l-75-125 75-125v52.3h143zm64.3-121c6.04 10.7 9.41 22.1 9.41 34.2 0 24.1-15.4 49.6-36.8 61.6-10.1 5.39-24.1 8.75-38.2 8.75h-44.2l-79-137 128-73z" fill="#ffffff"/>
     </g>
    </g>
   </g>
  </g>
 </g>
</svg>
