<svg enable-background="new 0 0 20 20" version="1.1" viewBox="0 0 20 20" xml:space="preserve" xmlns="http://www.w3.org/2000/svg">
<path d="m2.931 2.931c1.881-1.881 4.41-2.929 7.069-2.929s5.188 1.048 7.069 2.929c1.881 1.882 2.929 4.409 2.929 7.069s-1.048 5.189-2.928 7.07c-1.882 1.881-4.411 2.928-7.07 2.928s-5.188-1.047-7.069-2.928-2.929-4.41-2.929-7.07c0-2.658 1.048-5.187 2.929-7.069z" clip-rule="evenodd" fill="#ffffff" fill-rule="evenodd"/>
<path d="m1.0014 10.001c7.071e-4 -2.4855 1.0069-4.7348 2.6354-6.3633 1.6278-1.6278 3.8778-2.6347 6.3625-2.6347l7.071e-4 -7.071e-4c2.4848 0 4.7341 1.0076 6.3618 2.6354s2.6354 3.8771 2.6361 6.3625l-7.07e-4 7.07e-4c7.07e-4 2.4855-1.0055 4.7348-2.634 6.3633-1.6278 1.6278-3.8778 2.6347-6.3633 2.634-2.4862 0-4.7348-1.0069-6.3633-2.6354-1.6271-1.6271-2.6354-3.8771-2.6354-6.3618zm1.7748-0.58407 6.1063 0.055633 0.013908 1.1667-6.1195-0.05353c0.14071 1.7671 0.9157 3.3566 2.098 4.5389 1.1837 1.1837 2.7733 1.9587 4.541 2.0987l0.039338-6.06 1.1617 0.0065-0.03358 6.0542c1.7678-0.14142 3.358-0.9157 4.541-2.0987 1.183-1.183 1.958-2.7726 2.098-4.5403l-6.2169 0.02711-7.07e-4 -1.1396 6.2176-0.055633c-0.14142-1.7678-0.915-3.3574-2.0987-4.5411-1.1823-1.1823-2.7719-1.9573-4.5396-2.0973l-0.04312 6.2398-1.1243-0.013201-7.071e-4 -6.2266c-1.7685 0.1393-3.3574 0.915-4.5404 2.098-1.1823 1.1823-1.9587 2.7719-2.0994 4.5403z" clip-rule="evenodd" fill="#000000" fill-rule="evenodd"/>
</svg>
