<?xml version="1.0" encoding="UTF-8" standalone="no"?>
<!-- Created with Inkscape (http://www.inkscape.org/) -->

<svg
   xmlns:dc="http://purl.org/dc/elements/1.1/"
   xmlns:cc="http://creativecommons.org/ns#"
   xmlns:rdf="http://www.w3.org/1999/02/22-rdf-syntax-ns#"
   xmlns:svg="http://www.w3.org/2000/svg"
   xmlns="http://www.w3.org/2000/svg"
   xmlns:sodipodi="http://sodipodi.sourceforge.net/DTD/sodipodi-0.dtd"
   xmlns:inkscape="http://www.inkscape.org/namespaces/inkscape"
   width="42"
   height="28"
   viewBox="0 0 11.1125 7.4083336"
   version="1.1"
   id="svg2499"
   inkscape:version="0.92.4 (5da689c313, 2019-01-14)"
   sodipodi:docname="s_stadium-src.svg">
  <defs
     id="defs2493" />
  <sodipodi:namedview
     id="base"
     pagecolor="#ffffff"
     bordercolor="#666666"
     borderopacity="1.0"
     inkscape:pageopacity="0.0"
     inkscape:pageshadow="2"
     inkscape:zoom="17.428596"
     inkscape:cx="21.458994"
     inkscape:cy="14.006073"
     inkscape:document-units="px"
     inkscape:current-layer="layer1"
     showgrid="false"
     units="px"
     inkscape:pagecheckerboard="true"
     inkscape:window-width="1247"
     inkscape:window-height="701"
     inkscape:window-x="110"
     inkscape:window-y="136"
     inkscape:window-maximized="0"
     fit-margin-top="0"
     fit-margin-left="0"
     fit-margin-right="0"
     fit-margin-bottom="0" />
  <metadata
     id="metadata2496">
    <rdf:RDF>
      <cc:Work
         rdf:about="">
        <dc:format>image/svg+xml</dc:format>
        <dc:type
           rdf:resource="http://purl.org/dc/dcmitype/StillImage" />
        <dc:title></dc:title>
      </cc:Work>
    </rdf:RDF>
  </metadata>
  <g
     inkscape:label="Layer 1"
     inkscape:groupmode="layer"
     id="layer1"
     transform="translate(0.02999626,-289.59791)">
    <g
       style="display:inline;stroke:#ffffff;stroke-width:2;stroke-linejoin:round;stroke-miterlimit:4;stroke-dasharray:none"
       transform="matrix(0.26458334,0,0,0.26458334,-148.46125,192.24158)"
       id="g515488">
      <path
         inkscape:connector-curvature="0"
         id="path515490"
         d="m 563.16996,375.67787 2.26637,12.60097 3.53551,2.71966 9.33741,1.45046 11.42249,-0.27196 6.70844,-2.17571 2.08504,-1.26917 c 0,0 2.08507,-13.1449 2.08507,-13.50751 0,-0.36261 -4.17011,-3.26357 -4.17011,-3.26357 l -8.15891,-1.26917 -9.33743,-0.27195 c 0,0 -7.25235,0.63457 -8.24955,0.90652 -0.99719,0.272 -6.16452,2.17572 -6.16452,2.17572 z"
         style="fill:#ffcc00;fill-opacity:1;stroke:#ffffff;stroke-width:2;stroke-linejoin:round;stroke-miterlimit:4;stroke-dasharray:none" />
      <path
         inkscape:connector-curvature="0"
         id="path515492"
         d="m 578.60253,370.21739 -1.02564,0.0641 a 0.38798877,0.38798877 0 0 0 -0.0641,0 0.38798877,0.38798877 0 0 0 -0.0641,0.0641 0.38798877,0.38798877 0 0 0 -0.0641,0 0.38798877,0.38798877 0 0 0 -0.0641,0.0641 0.38798877,0.38798877 0 0 0 0,0.0641 0.38798877,0.38798877 0 0 0 -0.0641,0.0641 0.38798877,0.38798877 0 0 0 0,0.0641 0.38798877,0.38798877 0 0 0 0,0.0641 0.38798877,0.38798877 0 0 0 0,0.0641 l 1.15383,5.70512 c -1.51094,0.0994 -2.98947,0.2855 -4.48716,0.51281 l -2.3718,-5.19228 a 0.38798877,0.38798877 0 0 0 0,-0.0641 0.38798877,0.38798877 0 0 0 -0.0641,-0.0641 0.38798877,0.38798877 0 0 0 -0.0641,-0.0641 0.38798877,0.38798877 0 0 0 -0.0641,0 0.38798877,0.38798877 0 0 0 -0.0641,0 0.38798877,0.38798877 0 0 0 -0.0641,0 0.38798877,0.38798877 0 0 0 -0.0641,0 l -1.28205,0.1282 a 0.38798877,0.38798877 0 0 0 -0.0641,0.0641 0.38798877,0.38798877 0 0 0 -0.0641,0 0.38798877,0.38798877 0 0 0 -0.0641,0.0641 0.38798877,0.38798877 0 0 0 -0.0641,0.0641 0.38798877,0.38798877 0 0 0 0,0.0641 0.38798877,0.38798877 0 0 0 0,0.0641 0.38798877,0.38798877 0 0 0 -0.0641,0.0641 0.38798877,0.38798877 0 0 0 0,0.0641 0.38798877,0.38798877 0 0 0 0.0641,0.0641 0.38798877,0.38798877 0 0 0 0,0.0641 0.38798877,0.38798877 0 0 0 0,0.0641 l 3.33332,4.8077 c -1.42203,0.24743 -2.84033,0.43153 -4.23076,0.83332 a 0.38798877,0.38798877 0 0 0 -0.0641,0 0.38798877,0.38798877 0 0 0 -0.0641,0.0641 0.38798877,0.38798877 0 0 0 -0.0641,0.0641 0.38798877,0.38798877 0 0 0 -0.0641,0.0641 0.38798877,0.38798877 0 0 0 0,0.0641 0.38798877,0.38798877 0 0 0 -0.0641,0.0641 0.38798877,0.38798877 0 0 0 0,0.0641 0.38798877,0.38798877 0 0 0 0.0641,0.0641 0.38798877,0.38798877 0 0 0 0,0.0641 0.38798877,0.38798877 0 0 0 0.0641,0.0641 0.38798877,0.38798877 0 0 0 0,0.0641 0.38798877,0.38798877 0 0 0 0.0641,0.0641 0.38798877,0.38798877 0 0 0 0.0641,0 0.38798877,0.38798877 0 0 0 0.0641,0.0641 c 0.0615,0.0144 0.13078,-0.0145 0.19232,0 5.11171,1.23154 10.4242,1.49506 15.64099,1.34615 3.78773,-0.15015 7.59785,-0.59129 11.28202,-1.60256 0.0615,-0.0164 0.13098,0.0165 0.19231,0 a 0.38798877,0.38798877 0 0 0 0.0641,0 0.38798877,0.38798877 0 0 0 0.0641,-0.0641 0.38798877,0.38798877 0 0 0 0.0641,-0.0641 0.38798877,0.38798877 0 0 0 0.0641,-0.0641 0.38798877,0.38798877 0 0 0 0,-0.0641 0.38798877,0.38798877 0 0 0 0,-0.12821 0.38798877,0.38798877 0 0 0 0,-0.0641 0.38798877,0.38798877 0 0 0 0,-0.0641 0.38798877,0.38798877 0 0 0 -0.0641,-0.0641 0.38798877,0.38798877 0 0 0 0,-0.0641 0.38798877,0.38798877 0 0 0 -0.0641,0 0.38798877,0.38798877 0 0 0 0,-0.0641 0.38798877,0.38798877 0 0 0 -0.0641,0 0.38798877,0.38798877 0 0 0 -0.0641,0 c -0.0616,-0.0164 -0.13054,0.0165 -0.19231,0 -1.43973,-0.37191 -2.95521,-0.29291 -4.42305,-0.51281 l 3.39742,-4.93588 a 0.38798877,0.38798877 0 0 0 0.0641,-0.0641 0.38798877,0.38798877 0 0 0 0,-0.0641 0.38798877,0.38798877 0 0 0 0,-0.12821 0.38798877,0.38798877 0 0 0 0,-0.0641 0.38798877,0.38798877 0 0 0 0,-0.0641 0.38798877,0.38798877 0 0 0 0,-0.0641 0.38798877,0.38798877 0 0 0 -0.0641,0 0.38798877,0.38798877 0 0 0 0,-0.0641 0.38798877,0.38798877 0 0 0 -0.0641,-0.0641 0.38798877,0.38798877 0 0 0 -0.0641,0 0.38798877,0.38798877 0 0 0 -0.0641,-0.0641 0.38798877,0.38798877 0 0 0 -0.0641,0 l -1.21794,-0.12822 a 0.38798877,0.38798877 0 0 0 -0.0641,0 0.38798877,0.38798877 0 0 0 -0.0641,0 0.38798877,0.38798877 0 0 0 -0.0641,0 0.38798877,0.38798877 0 0 0 -0.0641,0 0.38798877,0.38798877 0 0 0 -0.0641,0.0641 0.38798877,0.38798877 0 0 0 -0.0641,0.0641 0.38798877,0.38798877 0 0 0 -0.0641,0.0641 l -2.5,5.3846 c -1.44879,-0.18564 -2.90111,-0.37641 -4.35897,-0.44872 l 1.21794,-5.96152 a 0.38798877,0.38798877 0 0 0 0,-0.0641 0.38798877,0.38798877 0 0 0 0,-0.1282 0.38798877,0.38798877 0 0 0 0,-0.0641 0.38798877,0.38798877 0 0 0 -0.0641,0 0.38798877,0.38798877 0 0 0 0,-0.0641 0.38798877,0.38798877 0 0 0 -0.0641,0 0.38798877,0.38798877 0 0 0 0,-0.0641 0.38798877,0.38798877 0 0 0 -0.0641,0 0.38798877,0.38798877 0 0 0 -0.0641,-0.0641 0.38798877,0.38798877 0 0 0 -0.0641,0 l -1.02563,-0.0641 a 0.38798877,0.38798877 0 0 0 -0.0641,0 0.38798877,0.38798877 0 0 0 -0.0641,0 0.38798877,0.38798877 0 0 0 -0.0641,0 0.38798877,0.38798877 0 0 0 -0.0641,0.0641 0.38798877,0.38798877 0 0 0 -0.0641,0.0641 0.38798877,0.38798877 0 0 0 -0.0641,0.0641 0.38798877,0.38798877 0 0 0 0,0.0641 0.38798877,0.38798877 0 0 0 -0.0641,0.0641 l -0.38462,6.02563 c -0.96567,-0.0335 -1.9217,-0.32398 -2.88461,-0.32051 -0.94141,0.0125 -1.87703,0.14451 -2.82051,0.1923 l -0.38461,-5.89742 a 0.38798877,0.38798877 0 0 0 0,-0.0641 0.38798877,0.38798877 0 0 0 0,-0.0641 0.38798877,0.38798877 0 0 0 -0.0641,-0.0641 0.38798877,0.38798877 0 0 0 0,-0.0641 0.38798877,0.38798877 0 0 0 -0.0641,0 0.38798877,0.38798877 0 0 0 -0.0641,-0.0641 0.38798877,0.38798877 0 0 0 -0.0641,0 0.38798877,0.38798877 0 0 0 -0.0641,0 0.38798877,0.38798877 0 0 0 -0.0641,0 z m -0.38461,0.76924 0.0641,1.02562 -0.1923,-0.96152 z m 8.0128,0 0.19231,0.0641 -0.32052,1.41025 z m -15.25638,1.34613 0.70514,1.60256 -1.02564,-1.53846 z m 22.49996,0 0.38461,0.0641 -1.15384,1.60256 z m -11.21793,4.67948 c 3.60681,-0.0125 7.1728,0.4905 10.70512,1.15385 -2.78289,0.53963 -5.612,1.04093 -8.46153,1.15384 -4.32943,0.1235 -8.63895,-0.13886 -12.8846,-0.89742 3.48977,-0.74122 7.05548,-1.36479 10.64101,-1.41027 z"
         style="color:#000000;font-style:normal;font-variant:normal;font-weight:normal;font-stretch:normal;font-size:medium;line-height:normal;font-family:Sans;-inkscape-font-specification:Sans;text-indent:0;text-align:start;text-decoration:none;text-decoration-line:none;letter-spacing:normal;word-spacing:normal;text-transform:none;writing-mode:lr-tb;direction:ltr;baseline-shift:baseline;text-anchor:start;display:inline;overflow:visible;visibility:visible;fill:#008500;fill-opacity:1;fill-rule:nonzero;stroke:#ffffff;stroke-width:2;stroke-linejoin:round;stroke-miterlimit:4;stroke-dasharray:none;marker:none;enable-background:accumulate" />
      <path
         inkscape:connector-curvature="0"
         id="path515494"
         d="m 581.99996,369.06354 c -5.25575,0 -10.03868,0.5999 -13.58972,1.60256 -1.77552,0.50134 -3.22549,1.1023 -4.35897,1.85898 -1.13343,0.75666 -2.05127,1.78864 -2.05127,3.14102 0,0.62341 0.18952,1.17291 0.51282,1.66666 l 1.92308,11.15383 a 1.0750307,1.0750307 0 0 0 0.70513,0.76923 1.0750307,1.0750307 0 0 0 0.0641,0.0641 c 0.31934,0.43769 0.68746,0.83318 1.15383,1.15385 0.98695,0.6786 2.30018,1.15295 3.84616,1.60255 1.67263,0.48645 3.64344,0.90841 5.83332,1.15386 v 0.70511 c 0,0.60001 0.76956,1.02565 1.73077,1.02565 h 9.23075 c 0.96122,0 1.73076,-0.42564 1.73076,-1.02565 v -0.83332 c 1.88488,-0.24395 3.58937,-0.59676 5.0641,-1.02565 1.54598,-0.4496 2.85921,-0.92395 3.84614,-1.60255 0.38986,-0.26806 0.73025,-0.61195 1.02565,-0.96155 0.009,-0.0112 0.0549,0.0113 0.0641,0 a 1.066776,1.066776 0 0 0 0.70513,-1.02562 l 1.98718,-11.02563 c 0.37333,-0.52392 0.57692,-1.11868 0.57692,-1.79487 0,-1.35237 -0.91781,-2.38437 -2.05127,-3.14102 -1.13346,-0.75667 -2.58347,-1.35764 -4.35897,-1.85897 -3.55105,-1.00266 -8.33398,-1.60256 -13.58972,-1.60256 z m 0,2.6923 c 5.04552,0 9.6208,0.5709 12.82049,1.47437 1.59986,0.45173 2.83551,0.97084 3.58974,1.47435 0.75423,0.5035 0.89743,0.85956 0.89743,0.96154 0,0.10187 -0.14324,0.45802 -0.89743,0.96152 -0.75423,0.50351 -1.98988,1.02264 -3.58974,1.47437 -3.19969,0.90346 -7.77497,1.53845 -12.82049,1.53845 -5.0455,0 -9.6208,-0.63499 -12.82048,-1.53845 -1.59986,-0.45173 -2.83551,-0.97086 -3.58975,-1.47437 -0.75422,-0.5035 -0.89742,-0.85956 -0.89742,-0.96152 0,-0.102 0.14315,-0.45804 0.89742,-0.96154 0.75424,-0.50351 1.98989,-1.02262 3.58975,-1.47435 3.19968,-0.90347 7.77498,-1.47437 12.82048,-1.47437 z m -16.92304,7.6923 c 0.95074,0.48333 2.05551,0.85715 3.33332,1.21795 3.55104,1.00266 8.33397,1.60256 13.58972,1.60256 5.25573,0 10.03868,-0.5999 13.58972,-1.60256 1.29815,-0.36655 2.43584,-0.72451 3.39744,-1.21795 l -1.60258,8.65383 a 1.066776,1.066776 0 0 0 -0.0641,0.25641 c -1.9093,1.2015 -4.94391,2.15742 -8.58973,2.69231 v -2.5641 c 0.0486,-5.04952 -11.52061,-5.86723 -12.69228,0 v 2.6923 c -4.02561,-0.51186 -7.38224,-1.52051 -9.42307,-2.82051 a 1.0750307,1.0750307 0 0 0 0,-0.0641 1.0750307,1.0750307 0 0 0 -0.0641,-0.19232 l -1.47435,-8.65382 z"
         style="color:#000000;font-style:normal;font-variant:normal;font-weight:normal;font-stretch:normal;font-size:medium;line-height:normal;font-family:Sans;-inkscape-font-specification:Sans;text-indent:0;text-align:start;text-decoration:none;text-decoration-line:none;letter-spacing:normal;word-spacing:normal;text-transform:none;writing-mode:lr-tb;direction:ltr;baseline-shift:baseline;text-anchor:start;display:inline;overflow:visible;visibility:visible;fill:#008500;fill-opacity:1;stroke:#ffffff;stroke-width:2;stroke-linejoin:round;stroke-miterlimit:4;stroke-dasharray:none;marker:none;enable-background:accumulate" />
    </g>
    <path
       inkscape:connector-curvature="0"
       id="path39311"
       d="m 0.53865882,291.60289 0.59964378,3.334 0.935437,0.71958 2.4705231,0.38377 3.0222005,-0.072 1.7749415,-0.57566 0.5516664,-0.3358 c 0,0 0.5516749,-3.47792 0.5516749,-3.57386 0,-0.0959 -1.1033413,-0.86349 -1.1033413,-0.86349 l -2.1587117,-0.3358 -2.4705284,-0.0719 c 0,0 -1.9188509,0.1679 -2.1826935,0.23985 -0.2638398,0.072 -1.63102922,0.57566 -1.63102922,0.57566 z"
       style="display:inline;fill:#05ff05;fill-opacity:1;stroke:none;stroke-width:0.26458335" />
    <path
       inkscape:connector-curvature="0"
       id="path8448"
       d="m 4.627342,290.19493 -0.2713673,0.017 a 0.10265536,0.10265536 0 0 0 -0.01696,0 0.10265536,0.10265536 0 0 0 -0.01696,0.017 0.10265536,0.10265536 0 0 0 -0.01696,0 0.10265536,0.10265536 0 0 0 -0.01696,0.017 0.10265536,0.10265536 0 0 0 0,0.017 0.10265536,0.10265536 0 0 0 -0.01696,0.017 0.10265536,0.10265536 0 0 0 0,0.017 0.10265536,0.10265536 0 0 0 0,0.017 0.10265536,0.10265536 0 0 0 0,0.017 l 0.3052842,1.50948 c -0.3997696,0.0263 -0.790964,0.0755 -1.1872278,0.13568 L 2.7616923,290.6023 a 0.10265536,0.10265536 0 0 0 0,-0.017 0.10265536,0.10265536 0 0 0 -0.01696,-0.017 0.10265536,0.10265536 0 0 0 -0.01696,-0.017 0.10265536,0.10265536 0 0 0 -0.01696,0 0.10265536,0.10265536 0 0 0 -0.01696,0 0.10265536,0.10265536 0 0 0 -0.01696,0 0.10265536,0.10265536 0 0 0 -0.01696,0 l -0.3392091,0.0339 a 0.10265536,0.10265536 0 0 0 -0.01696,0.017 0.10265536,0.10265536 0 0 0 -0.01696,0 0.10265536,0.10265536 0 0 0 -0.01696,0.017 0.10265536,0.10265536 0 0 0 -0.01696,0.017 0.10265536,0.10265536 0 0 0 0,0.017 0.10265536,0.10265536 0 0 0 0,0.017 0.10265536,0.10265536 0 0 0 -0.01696,0.017 0.10265536,0.10265536 0 0 0 0,0.017 0.10265536,0.10265536 0 0 0 0.01696,0.017 0.10265536,0.10265536 0 0 0 0,0.017 0.10265536,0.10265536 0 0 0 0,0.017 l 0.881941,1.27204 c -0.3762455,0.0655 -0.751504,0.11417 -1.1193886,0.22048 a 0.10265536,0.10265536 0 0 0 -0.01696,0 0.10265536,0.10265536 0 0 0 -0.01696,0.017 0.10265536,0.10265536 0 0 0 -0.01696,0.017 0.10265536,0.10265536 0 0 0 -0.01696,0.017 0.10265536,0.10265536 0 0 0 0,0.017 0.10265536,0.10265536 0 0 0 -0.01696,0.017 0.10265536,0.10265536 0 0 0 0,0.017 0.10265536,0.10265536 0 0 0 0.01696,0.017 0.10265536,0.10265536 0 0 0 0,0.017 0.10265536,0.10265536 0 0 0 0.01696,0.017 0.10265536,0.10265536 0 0 0 0,0.017 0.10265536,0.10265536 0 0 0 0.01696,0.017 0.10265536,0.10265536 0 0 0 0.01696,0 0.10265536,0.10265536 0 0 0 0.01696,0.017 c 0.016272,0.004 0.034602,-0.004 0.050885,0 1.3524733,0.32584 2.7580697,0.39557 4.1383454,0.35617 1.0021702,-0.0397 2.0102645,-0.15645 2.9850345,-0.42401 0.016272,-0.004 0.034655,0.004 0.050882,0 a 0.10265536,0.10265536 0 0 0 0.01696,0 0.10265536,0.10265536 0 0 0 0.01696,-0.017 0.10265536,0.10265536 0 0 0 0.01696,-0.017 0.10265536,0.10265536 0 0 0 0.01696,-0.017 0.10265536,0.10265536 0 0 0 0,-0.017 0.10265536,0.10265536 0 0 0 0,-0.0339 0.10265536,0.10265536 0 0 0 0,-0.017 0.10265536,0.10265536 0 0 0 0,-0.017 0.10265536,0.10265536 0 0 0 -0.01696,-0.017 0.10265536,0.10265536 0 0 0 0,-0.017 0.10265536,0.10265536 0 0 0 -0.01696,0 0.10265536,0.10265536 0 0 0 0,-0.017 0.10265536,0.10265536 0 0 0 -0.01696,0 0.10265536,0.10265536 0 0 0 -0.01696,0 c -0.016298,-0.004 -0.034539,0.004 -0.050882,0 -0.3809286,-0.0984 -0.7818993,-0.0775 -1.1702653,-0.13569 l 0.8989007,-1.30595 a 0.10265536,0.10265536 0 0 0 0.01696,-0.017 0.10265536,0.10265536 0 0 0 0,-0.017 0.10265536,0.10265536 0 0 0 0,-0.0339 0.10265536,0.10265536 0 0 0 0,-0.017 0.10265536,0.10265536 0 0 0 0,-0.017 0.10265536,0.10265536 0 0 0 0,-0.017 0.10265536,0.10265536 0 0 0 -0.01696,0 0.10265536,0.10265536 0 0 0 0,-0.017 0.10265536,0.10265536 0 0 0 -0.01696,-0.017 0.10265536,0.10265536 0 0 0 -0.01696,0 0.10265536,0.10265536 0 0 0 -0.01696,-0.017 0.10265536,0.10265536 0 0 0 -0.01696,0 l -0.3222466,-0.0339 a 0.10265536,0.10265536 0 0 0 -0.01696,0 0.10265536,0.10265536 0 0 0 -0.01696,0 0.10265536,0.10265536 0 0 0 -0.01696,0 0.10265536,0.10265536 0 0 0 -0.01696,0 0.10265536,0.10265536 0 0 0 -0.01696,0.017 0.10265536,0.10265536 0 0 0 -0.01696,0.017 0.10265536,0.10265536 0 0 0 -0.01696,0.017 l -0.6614583,1.42467 c -0.3833207,-0.0497 -0.7675804,-0.10015 -1.1533058,-0.11928 l 0.3222466,-1.57732 a 0.10265536,0.10265536 0 0 0 0,-0.017 0.10265536,0.10265536 0 0 0 0,-0.0339 0.10265536,0.10265536 0 0 0 0,-0.017 0.10265536,0.10265536 0 0 0 -0.01696,0 0.10265536,0.10265536 0 0 0 0,-0.017 0.10265536,0.10265536 0 0 0 -0.01696,0 0.10265536,0.10265536 0 0 0 0,-0.017 0.10265536,0.10265536 0 0 0 -0.01696,0 0.10265536,0.10265536 0 0 0 -0.01696,-0.017 0.10265536,0.10265536 0 0 0 -0.01696,0 l -0.2713646,-0.017 a 0.10265536,0.10265536 0 0 0 -0.01696,0 0.10265536,0.10265536 0 0 0 -0.01696,0 0.10265536,0.10265536 0 0 0 -0.01696,0 0.10265536,0.10265536 0 0 0 -0.01696,0.017 0.10265536,0.10265536 0 0 0 -0.01696,0.017 0.10265536,0.10265536 0 0 0 -0.01696,0.017 0.10265536,0.10265536 0 0 0 0,0.017 0.10265536,0.10265536 0 0 0 -0.01696,0.017 l -0.1017641,1.59428 c -0.2555002,-0.009 -0.5084498,-0.0857 -0.7632197,-0.0848 -0.2490814,0.003 -0.4966309,0.0382 -0.74626,0.0509 l -0.1017588,-1.56036 a 0.10265536,0.10265536 0 0 0 0,-0.017 0.10265536,0.10265536 0 0 0 0,-0.017 0.10265536,0.10265536 0 0 0 -0.01696,-0.017 0.10265536,0.10265536 0 0 0 0,-0.017 0.10265536,0.10265536 0 0 0 -0.01696,0 0.10265536,0.10265536 0 0 0 -0.01696,-0.017 0.10265536,0.10265536 0 0 0 -0.01696,0 0.10265536,0.10265536 0 0 0 -0.01696,0 0.10265536,0.10265536 0 0 0 -0.01696,0 z m -0.1017614,0.20353 0.01696,0.27136 -0.050879,-0.2544 z m 2.1200534,0 0.050882,0.017 -0.084804,0.37313 z m -4.036584,0.35617 0.1865683,0.42401 -0.2713672,-0.40706 z m 5.9531145,0 0.1017614,0.017 -0.3052868,0.42402 z m -2.9680773,1.23811 c 0.9543018,-0.003 1.8978033,0.12978 2.8323964,0.30529 -0.7363064,0.14277 -1.4848417,0.27541 -2.2387799,0.30528 -1.145495,0.0327 -2.2857222,-0.0367 -3.4090505,-0.23744 0.923335,-0.19611 1.8667625,-0.3611 2.815434,-0.37313 z"
       style="color:#000000;font-style:normal;font-variant:normal;font-weight:normal;font-stretch:normal;font-size:medium;line-height:normal;font-family:Sans;-inkscape-font-specification:Sans;text-indent:0;text-align:start;text-decoration:none;text-decoration-line:none;letter-spacing:normal;word-spacing:normal;text-transform:none;writing-mode:lr-tb;direction:ltr;baseline-shift:baseline;text-anchor:start;display:inline;overflow:visible;visibility:visible;fill:#004900;fill-opacity:1;fill-rule:nonzero;stroke:none;stroke-width:0.10007916;marker:none;enable-background:accumulate" />
    <path
       inkscape:connector-curvature="0"
       id="path8348"
       d="m 5.5262445,289.88964 c -1.3905839,0 -2.6560675,0.15872 -3.5956135,0.42401 -0.469773,0.13265 -0.853411,0.29165 -1.15331087,0.49186 -0.29988669,0.2002 -0.54273186,0.47324 -0.54273186,0.83106 0,0.16494 0.0501438,0.31033 0.13568363,0.44097 l 0.50881488,2.95112 a 0.28443521,0.28443521 0 0 0 0.18656572,0.20352 0.28443521,0.28443521 0 0 0 0.01696,0.017 c 0.084492,0.11581 0.1818905,0.22045 0.3052842,0.30529 0.2611305,0.17955 0.6085893,0.30505 1.0176298,0.42401 0.4425501,0.1287 0.9639936,0.24035 1.5433993,0.30529 v 0.18656 c 0,0.15875 0.2036128,0.27137 0.4579329,0.27137 h 2.4423025 c 0.2543228,0 0.4579302,-0.11262 0.4579302,-0.27137 v -0.22048 c 0.4987079,-0.0645 0.9496875,-0.15789 1.3398765,-0.27137 0.4090406,-0.11896 0.7564993,-0.24446 1.0176246,-0.42401 0.1031504,-0.0709 0.193212,-0.16191 0.2713696,-0.25441 0.0024,-0.003 0.01453,0.003 0.01696,0 a 0.28225116,0.28225116 0 0 0 0.1865659,-0.27136 l 0.525774,-2.9172 c 0.09878,-0.13862 0.152644,-0.29598 0.152644,-0.47489 0,-0.35782 -0.242838,-0.63087 -0.542732,-0.83106 -0.2998949,-0.20021 -0.6835428,-0.35921 -1.1533105,-0.49186 -0.9395487,-0.26528 -2.2050323,-0.42401 -3.5956135,-0.42401 z m 0,0.71234 c 1.3349605,0 2.5455034,0.15105 3.392088,0.39009 0.4232963,0.11952 0.7502287,0.25687 0.9497854,0.39009 0.1995561,0.13322 0.2374451,0.22743 0.2374451,0.25441 0,0.0269 -0.0379,0.12118 -0.2374451,0.2544 -0.1995567,0.13322 -0.5264891,0.27057 -0.9497854,0.39009 -0.8465846,0.23904 -2.0571275,0.40705 -3.392088,0.40705 -1.3349553,0 -2.5455034,-0.16801 -3.3920854,-0.40705 -0.4232963,-0.11952 -0.7502287,-0.25687 -0.9497881,-0.39009 -0.19955402,-0.13322 -0.23744242,-0.22743 -0.23744242,-0.2544 0,-0.027 0.037875,-0.12119 0.23744242,-0.25441 0.1995594,-0.13322 0.5264918,-0.27057 0.9497881,-0.39009 0.846582,-0.23904 2.0571301,-0.39009 3.3920854,-0.39009 z M 1.04869,292.63723 c 0.25155,0.12788 0.5438538,0.22679 0.881941,0.32225 0.939546,0.26529 2.2050296,0.42401 3.5956135,0.42401 1.3905786,0 2.6560674,-0.15872 3.5956135,-0.42401 0.3434688,-0.097 0.6444826,-0.19169 0.898906,-0.32225 l -0.424016,2.28966 a 0.28225116,0.28225116 0 0 0 -0.01696,0.0678 c -0.5051689,0.3179 -1.3080762,0.57082 -2.2726994,0.71234 v -0.67841 c 0.012859,-1.33602 -3.0481615,-1.55238 -3.3581658,0 v 0.71237 c -1.0651092,-0.13543 -1.9532175,-0.4023 -2.4931871,-0.74626 a 0.28443521,0.28443521 0 0 0 0,-0.017 0.28443521,0.28443521 0 0 0 -0.01696,-0.0509 l -0.3900885,-2.28966 z"
       style="color:#000000;font-style:normal;font-variant:normal;font-weight:normal;font-stretch:normal;font-size:medium;line-height:normal;font-family:Sans;-inkscape-font-specification:Sans;text-indent:0;text-align:start;text-decoration:none;text-decoration-line:none;letter-spacing:normal;word-spacing:normal;text-transform:none;writing-mode:lr-tb;direction:ltr;baseline-shift:baseline;text-anchor:start;display:inline;overflow:visible;visibility:visible;fill:#004900;fill-opacity:1;stroke:none;stroke-width:5.29166698;marker:none;enable-background:accumulate" />
  </g>
</svg>
