<svg width="37.6" height="37.6" version="1.1" viewBox="0 0 9.94 9.94" xmlns="http://www.w3.org/2000/svg">
 <g transform="translate(-7.98 -5.43)">
  <circle cx="12.9" cy="10.4" r="4.68" fill="#05f505" stroke="#fff" stroke-width=".585"/>
  <path d="m9.4 6.4c-.205 0-.434.217-.434.434v3.04c0 .963.434 2.17 2.17 2.17.156 0 .298-.0074.434-.0269v-1.39h-1.74s.217-.869 1.3-.869c.217 0 .303.0321.434.0814v-.833c0-.398.159-.731.434-.869.434-.217.61-.129.869 0l.434.217v-1.52c0-.217-.23-.434-.434-.434-.434 0-.869.434-1.74.434-.869 0-1.3-.434-1.74-.434zm.76 1.52c.3 0 .543.243.543.543 0 .3-.243.543-.543.543-.3 0-.543-.243-.543-.543 0-.3.243-.543.543-.543zm2.28.652c-.205 0-.434.217-.434.434v3.04c0 .963.434 2.17 2.17 2.17 1.74 0 2.17-1.21 2.17-2.17v-3.04c0-.217-.23-.434-.434-.434-.434 0-.869.434-1.74.434-.869 0-1.3-.434-1.74-.434zm.76 1.52c.3 0 .543.243.543.543 0 .3-.243.543-.543.543-.3 0-.543-.243-.543-.543 0-.3.243-.543.543-.543zm1.95 0c.3 0 .543.243.543.543 0 .3-.243.543-.543.543s-.543-.243-.543-.543c0-.3.243-.543.543-.543zm-2.28 2.39h2.61s-.217.869-1.3.869c-1.09 0-1.3-.869-1.3-.869z" color="#000000" fill="#fc0" stroke="#00d400" stroke-width=".529"/>
  <path d="m9.4 6.4c-.205 0-.434.217-.434.434v3.04c0 .963.434 2.17 2.17 2.17.156 0 .298-.0074.434-.0269v-1.39h-1.74s.217-.869 1.3-.869c.217 0 .303.0321.434.0814v-.833c0-.398.159-.731.434-.869.434-.217.61-.129.869 0l.434.217v-1.52c0-.217-.23-.434-.434-.434-.434 0-.869.434-1.74.434-.869 0-1.3-.434-1.74-.434zm.76 1.52c.3 0 .543.243.543.543 0 .3-.243.543-.543.543-.3 0-.543-.243-.543-.543 0-.3.243-.543.543-.543zm2.28.652c-.205 0-.434.217-.434.434v3.04c0 .963.434 2.17 2.17 2.17 1.74 0 2.17-1.21 2.17-2.17v-3.04c0-.217-.23-.434-.434-.434-.434 0-.869.434-1.74.434-.869 0-1.3-.434-1.74-.434zm.76 1.52c.3 0 .543.243.543.543 0 .3-.243.543-.543.543-.3 0-.543-.243-.543-.543 0-.3.243-.543.543-.543zm1.95 0c.3 0 .543.243.543.543 0 .3-.243.543-.543.543s-.543-.243-.543-.543c0-.3.243-.543.543-.543zm-2.28 2.39h2.61s-.217.869-1.3.869c-1.09 0-1.3-.869-1.3-.869z" color="#000000" fill="#004900"/>
 </g>
</svg>
