<svg xmlns="http://www.w3.org/2000/svg" version="1.0" width="580" height="580"><path d="M290 36.392c-9.058.108-18.115 5.956-18.115 18.114v140.391L72.62 290.001h434.76l-199.265-95.104V54.507c0-12.622-9.058-18.231-18.115-18.115zm36.23 0v108.69h144.92l-72.46-54.346 72.46-54.344zM72.62 326.23v36.23h36.23v144.92H72.62v36.23h434.76v-36.23h-36.23V362.46h36.23v-36.23zM290 380.576c36.23 0 72.46 18.115 72.46 54.345v72.46H217.54v-72.46c0-36.23 36.23-54.345 72.46-54.345z" opacity=".8" fill="none" stroke="#111" stroke-linejoin="round" stroke-width="90"/><path d="M290 36.391c-9.058.11-18.115 5.957-18.115 18.115v140.391L72.62 290.001h434.76l-199.265-95.104V54.507c0-12.622-9.058-18.231-18.115-18.116zm36.23 0v108.69h144.92l-72.46-54.345 72.46-54.345zM72.62 326.231v36.23h36.23v144.92H72.62v36.23h434.76v-36.23h-36.23V362.46h36.23v-36.23zM290 380.576c36.23 0 72.46 18.115 72.46 54.345v72.46H217.54v-72.46c0-36.23 36.23-54.345 72.46-54.345z" fill="#ffff12"/></svg>