<svg width="28" height="28" version="1.1" viewBox="0 0 7.4083 7.4083" xmlns="http://www.w3.org/2000/svg">
 <g transform="translate(-.52149 -288.89)">
  <rect x=".78608" y="289.16" width="6.8792" height="6.8792" rx="1.0583" fill="#1279ff" stroke="#fff" stroke-width=".52917"/>
  <rect x=".78608" y="289.16" width="6.8792" height="6.8792" rx="1.0583" fill="#1279ff"/>
  <g transform="matrix(.15577 0 0 .15577 -229.91 199.56)" fill="#fff">
   <path d="m1509.9 600.16c1.0831 0 1.9611.87802 1.9611 1.9611s-.878 1.9611-1.9611 1.9611-1.9611-.87802-1.9611-1.9611.878-1.9611 1.9611-1.9611zm-13.728 0c1.0831 0 1.9611.87802 1.9611 1.9611s-.878 1.9611-1.9611 1.9611-1.9611-.87802-1.9611-1.9611.878-1.9611 1.9611-1.9611zm7.8031-17.527c4.2195.42393 7.5143 3.5544 7.5143 7.4403v3.7792h-7.5143zm-1.8785 0v11.219h-7.5142v-3.7792c0-3.8858 3.2948-7.0163 7.5142-7.4403zm.9393-4.0448c-7.4798 0-13.543 5.1636-13.543 11.533v15.377c0 1.0649.9292 1.9222 2.0836 1.9222h22.92c1.1542 0 2.0836-.85729 2.0836-1.9222v-15.377c0-6.3695-6.0636-11.533-13.543-11.533z"/>
   <path d="m1502.1 609.11h-5.8833l-5.8833 6.7439h7.8444z"/>
   <path d="m1504 609.11h5.8834l5.8833 6.7439h-7.8445z"/>
  </g>
  <rect x="3.9592" y="290" width=".533" height="2.3985" fill="#fff"/>
 </g>
</svg>
