<?xml version="1.0" encoding="UTF-8" standalone="no"?>
<!-- Created with Inkscape (http://www.inkscape.org/) -->

<svg
   width="28"
   height="28"
   viewBox="0 0 7.4083332 7.4083338"
   version="1.1"
   id="svg3678"
   inkscape:version="1.1.1 (3bf5ae0d25, 2021-09-20)"
   sodipodi:docname="s_trainstation-LE.svg"
   xmlns:inkscape="http://www.inkscape.org/namespaces/inkscape"
   xmlns:sodipodi="http://sodipodi.sourceforge.net/DTD/sodipodi-0.dtd"
   xmlns="http://www.w3.org/2000/svg"
   xmlns:svg="http://www.w3.org/2000/svg"
   xmlns:rdf="http://www.w3.org/1999/02/22-rdf-syntax-ns#"
   xmlns:cc="http://creativecommons.org/ns#"
   xmlns:dc="http://purl.org/dc/elements/1.1/">
  <defs
     id="defs3672" />
  <sodipodi:namedview
     id="base"
     pagecolor="#ffffff"
     bordercolor="#666666"
     borderopacity="1.0"
     inkscape:pageopacity="0.0"
     inkscape:pageshadow="2"
     inkscape:zoom="16.61701"
     inkscape:cx="15.074914"
     inkscape:cy="15.4059"
     inkscape:document-units="px"
     inkscape:current-layer="svg3678"
     showgrid="false"
     units="px"
     inkscape:pagecheckerboard="true"
     inkscape:window-width="1300"
     inkscape:window-height="827"
     inkscape:window-x="208"
     inkscape:window-y="64"
     inkscape:window-maximized="0"
     fit-margin-top="0"
     fit-margin-left="0"
     fit-margin-right="0"
     fit-margin-bottom="0" />
  <metadata
     id="metadata3675">
    <rdf:RDF>
      <cc:Work
         rdf:about="">
        <dc:format>image/svg+xml</dc:format>
        <dc:type
           rdf:resource="http://purl.org/dc/dcmitype/StillImage" />
      </cc:Work>
    </rdf:RDF>
  </metadata>
  <rect
     rx="1.0583334"
     y="0.2645835"
     x="0.2645835"
     height="6.8791666"
     width="6.8791666"
     id="rect5265"
     style="display:inline;fill:#1279ff;fill-opacity:1;fill-rule:nonzero;stroke:#ffffff;stroke-width:0.529167;stroke-miterlimit:4;stroke-dasharray:none" />
  <rect
     rx="1.0583334"
     y="0.2645835"
     x="0.2645835"
     height="6.8791666"
     width="6.8791666"
     id="rect20435"
     style="display:inline;fill:#1279ff;fill-opacity:1;fill-rule:nonzero;stroke:none;stroke-width:0.264583" />
  <path
     d="m 4.773377,4.1623967 c 0.1687185,0 0.3054878,0.1367724 0.3054878,0.3054893 0,0.1687169 -0.1367693,0.3054893 -0.3054878,0.3054893 -0.1687185,0 -0.3054878,-0.1367724 -0.3054878,-0.3054893 0,-0.1687169 0.1367693,-0.3054893 0.3054878,-0.3054893 z m -2.1384299,0 c 0.1687185,0 0.3054878,0.1367724 0.3054878,0.3054893 0,0.1687169 -0.1367693,0.3054893 -0.3054878,0.3054893 -0.1687185,0 -0.3054878,-0.1367724 -0.3054878,-0.3054893 0,-0.1687169 0.1367693,-0.3054893 0.3054878,-0.3054893 z M 3.8504647,1.432086 c 0.657287,0.066037 1.1705301,0.5536851 1.1705301,1.1589982 V 3.1797826 H 3.8504647 Z m -0.2926208,0 V 3.1797826 H 2.3873293 V 2.5910842 c 0,-0.6053131 0.5132431,-1.0929611 1.1705146,-1.1589982 z M 3.7041621,0.80201421 c -1.165156,0 -2.1097053,0.80435139 -2.1097053,1.79655489 v 2.3954082 c 0,0.1658834 0.1447449,0.2994267 0.3245701,0.2994267 h 3.5702703 c 0.179794,0 0.3245701,-0.1335433 0.3245701,-0.2994267 V 2.5985691 c 0,-0.9922035 -0.9445493,-1.79655489 -2.1097052,-1.79655489 z"
     style="fill:#ffffff;fill-opacity:1;stroke:none;stroke-width:0.155774"
     id="rect3109"
     inkscape:connector-curvature="0" />
  <path
     sodipodi:nodetypes="ccccc"
     inkscape:connector-curvature="0"
     id="path3067-4"
     d="M 3.5514104,5.5557923 H 2.6349471 l -0.9164633,1.050519 h 1.2219511 z"
     style="fill:#ffffff;fill-opacity:1;stroke:none;stroke-width:0.155774" />
  <path
     style="fill:#ffffff;fill-opacity:1;stroke:none;stroke-width:0.155774"
     d="M 3.8568981,5.5557923 H 4.773377 l 0.9164633,1.050519 H 4.4678736 Z"
     id="path3069-8"
     inkscape:connector-curvature="0"
     sodipodi:nodetypes="ccccc" />
  <rect
     style="display:inline;fill:#ffffff;fill-opacity:1;fill-rule:nonzero;stroke:none;stroke-width:0.264583"
     id="rect514798"
     width="0.53299928"
     height="2.3984966"
     x="3.4376671"
     y="1.1139183" />
</svg>
