<?xml version="1.0" encoding="utf-8"?>
<!-- Generator: Adobe Illustrator 16.0.0, SVG Export Plug-In . SVG Version: 6.00 Build 0)  -->
<!DOCTYPE svg PUBLIC "-//W3C//DTD SVG 1.1//EN" "http://www.w3.org/Graphics/SVG/1.1/DTD/svg11.dtd">
<svg version="1.1" id="Layer_1" xmlns="http://www.w3.org/2000/svg" xmlns:xlink="http://www.w3.org/1999/xlink" x="0px" y="0px"
	 width="20px" height="20px" viewBox="0 0 20 20" enable-background="new 0 0 20 20" xml:space="preserve">
<path fill-rule="evenodd" clip-rule="evenodd" fill="#FFFFFF" d="M10,0.002c2.456,0,4.463,2.006,4.463,4.461v11.072
	c0,2.457-2.007,4.463-4.463,4.463s-4.463-2.006-4.463-4.463V4.463C5.537,2.008,7.544,0.002,10,0.002z"/>
<path fill-rule="evenodd" clip-rule="evenodd" fill="#000001" d="M10,1.001L10,1.001c1.904,0,3.463,1.559,3.463,3.462v11.072
	c0,1.904-1.559,3.463-3.463,3.463l0,0c-1.905,0-3.463-1.559-3.463-3.463V4.463C6.537,2.56,8.095,1.001,10,1.001z"/>
<path fill-rule="evenodd" clip-rule="evenodd" fill="#CE1F26" d="M10,6.955c1.355,0,2.461-1.107,2.461-2.463
	c0-1.354-1.105-2.46-2.461-2.46s-2.461,1.105-2.461,2.46C7.539,5.848,8.645,6.955,10,6.955z"/>
<path fill-rule="evenodd" clip-rule="evenodd" fill="#FCDA00" d="M10,12.461c1.355,0,2.461-1.105,2.461-2.461S11.355,7.539,10,7.539
	S7.539,8.645,7.539,10S8.645,12.461,10,12.461z"/>
<path fill-rule="evenodd" clip-rule="evenodd" fill="#00A74B" d="M10,17.967c1.355,0,2.461-1.105,2.461-2.461
	S11.355,13.045,10,13.045s-2.461,1.105-2.461,2.461S8.645,17.967,10,17.967z"/>
</svg>
