<svg xmlns="http://www.w3.org/2000/svg" width="580" height="580"><path d="M283.442 108.136c-17.673.002-31.999 14.328-32 32v45l-96.512-48.039c-8.153-3.855-17.99.592-21.453 7.194l-8.88 17.837c-3.937 7.911-.717 17.517 7.194 21.456l99.946 49.746-125.946 62.689c-7.911 3.938-11.133 13.544-7.195 21.455l8.88 17.838c3.94 7.91 13.543 11.13 21.454 7.193l122.512-60.98v158.34c.002 17.671 14.327 31.997 32 32h13.615c17.672-.003 31.998-14.329 32-32V281.77l122.015 60.732c7.911 3.937 17.515.717 21.454-7.193l8.878-17.838c3.937-7.91.717-17.514-7.193-21.453l-125.943-62.69 99.943-49.745c7.91-3.939 11.13-13.543 7.193-21.454l-8.878-17.838c-3.938-7.91-13.542-11.131-21.454-7.195l-96.015 47.791v-44.752c-.002-17.672-14.328-31.998-32-32z" opacity=".8" fill="none" stroke="#fffd1d" color="#000" stroke-linejoin="round" stroke-width="64"/><path d="M283.442 108.136c-17.673.002-31.999 14.328-32 32v45l-96.512-48.039c-8.153-3.855-17.99.592-21.453 7.194l-8.88 17.837c-3.937 7.911-.717 17.517 7.194 21.456l99.946 49.746-125.946 62.689c-7.911 3.938-11.133 13.544-7.195 21.455l8.88 17.838c3.94 7.91 13.543 11.13 21.454 7.193l122.512-60.98v158.34c.002 17.671 14.327 31.997 32 32h13.615c17.672-.003 31.998-14.329 32-32V281.77l122.015 60.732c7.911 3.937 17.515.717 21.454-7.193l8.878-17.838c3.937-7.91.717-17.514-7.193-21.453l-125.943-62.69 99.943-49.745c7.91-3.939 11.13-13.543 7.193-21.454l-8.878-17.838c-3.938-7.91-13.542-11.131-21.454-7.195l-96.015 47.791v-44.752c-.002-17.672-14.328-31.998-32-32z" fill="#f80000" color="#000"/></svg>