<svg width="34" height="34" version="1.1" viewBox="0 0 9 9" xmlns="http://www.w3.org/2000/svg">
 <g transform="translate(0 -288)">
  <circle cx="4.59" cy="293" r="4.2" fill="#5cecf2" stroke="#35e1ff" stroke-width=".525"/>
  <g transform="matrix(.26 0 0 .26 .449 288)" fill="#000090">
   <path d="m16 17.5c-3.46 0-6.4 1.01-8.32 2.58v2.93h16.6v-2.93c-1.92-1.58-4.86-2.58-8.32-2.58zm15.3-1.5-15.3-7.06-15.3 7.06 2.55 1.17v1.8c-.64.133-.642.468-.642.867 0 .235.078.511.227.677l-.875 1.87h3.12l-.868-1.88c.146-.165.266-.408.266-.644 0-.398-.59-.766-.59-.899v-1.5l3.2 1.44v-.127c1.92-1.67 5.29-2.73 8.96-2.73s7.04 1.06 8.96 2.73v.127l6.32-2.91z" fill="#000090"/>
  </g>
 </g>
</svg>
