<svg height="580" width="580" xmlns="http://www.w3.org/2000/svg">
 <path d="m131 470c-30.9 1.56-61.4 20.6-89.5 25v54.1c38-1.8 72.7-34.4 112-19.5 30.3 13.5 64.4 21 95.9 6.25 34.3-15.4 71.1-5.56 104 6.99 40.2 16.1 76.4-15.8 116-17.1 22.7-3.74 56.2 20.5 70.1 12v-50.9c-33.4-9.58-69.2-25.7-104-10.1-33 16.2-70.8 19.4-105 3.28-33.8-15.8-70-4.65-103 6.1-34.1 11.4-63.8-14.9-96.9-16.2zm-2.56-104c-29.1 4.07-63.1 18.9-87 26.5v52.5c38-1.6 72.7-34.5 112-19.5 30.2 13.6 64.4 21.1 95.9 6.39 34.3-15.5 71.1-5.75 104 6.89 40.2 16.2 76.4-15.8 116-17.1 22.8-3.82 56.2 20.6 70.1 12.1v-51.1c-33.4-9.58-69.2-25.7-104-10-33 16.2-70.8 19.5-105 3.32-33.8-15.8-70-4.64-103 6.11-35 11.8-65.3-16.4-99.5-16.2zm231-202c16 22.9 27.5 53.8 46.1 72 17.1-1.62 39.5 5.91 50.3-11.9 9.49-18.9-9.21-34.5-16.5-50.7-7.94-13.6-15.9-27.1-23.8-40.7-18.8 10.3-37.4 20.9-56.1 31.3zm-3.89 48.1c-13.4 23-26.9 45.9-40.3 68.9 13.4 22.7 26.9 45.4 40.3 68.1v-36.9c16.8-.984 34.4 2.33 50.6-2.43 14.6-14.1 22-34.3 33.3-51.2 14.3-16.1-7.76-7.16-18.9-9.16-21.7-.13-43.4-.26-65-.389.0757-12.3.0405-24.6.0405-36.9zm-125-170c-13.4 22.7-26.9 45.4-40.3 68.1 20.6 5.14 50.7 44.6 63.3 18.9 6.98-22.3 39.3-44.5 30-67.2-8.04-13.9-15.2-35-35.4-31.5-7.38.62-14 5.27-17.5 11.7zm60.6 78.1h81c13.5-23 27-45.9 40.5-68.9-11 6.23-22 12.5-33 18.7-9.39-13.4-14.8-30.4-27.8-40.7-21.2-4.72-43.7-1.24-65.4-2.31-17.8-3.2 5.72 15 7.01 23.6 10.2 17.4 20.4 34.8 30.6 52.2-11 5.81-21.9 11.6-32.9 17.4zm-104 185c15.2 11.7 35.7 5.07 53.6 6.81h43.6v-63.3h-84.3c-7.96 17.3-31.3 37.8-13 56.5zm16-152h-81c11 6.23 22 12.5 33 18.7-7.42 14.7-19.7 27.6-22.7 44 4.85 19 18.6 34.6 27.4 52 7.08 20.4 10.9 1.3 18-9.07 11.1-18.8 22.2-37.6 33.2-56.3 10.8 6.37 21.6 12.7 32.4 19.1-13.4-22.8-26.9-45.6-40.3-68.4zm-72.3 316c-30.9 1.56-61.4 20.6-89.5 25v54.1c38-1.8 72.7-34.4 112-19.5 30.3 13.5 64.4 21 95.9 6.25 34.3-15.4 71.1-5.56 104 6.99 40.2 16.1 76.4-15.8 116-17.1 22.7-3.74 56.2 20.5 70.1 12v-50.9c-33.4-9.58-69.2-25.7-104-10.1-33 16.2-70.8 19.4-105 3.28-33.8-15.8-70-4.65-103 6.1-34.1 11.4-63.8-14.9-96.9-16.2zm-2.56-104c-29.1 4.07-63.1 18.9-87 26.5v52.5c38-1.6 72.7-34.5 112-19.5 30.2 13.6 64.4 21.1 95.9 6.39 34.3-15.5 71.1-5.75 104 6.89 40.2 16.2 76.4-15.8 116-17.1 22.8-3.82 56.2 20.6 70.1 12.1v-51.1c-33.4-9.58-69.2-25.7-104-10-33 16.2-70.8 19.5-105 3.32-33.8-15.8-70-4.64-103 6.11-35 11.8-65.3-16.4-99.5-16.2zm231-202c16 22.9 27.5 53.8 46.1 72 17.1-1.62 39.5 5.91 50.3-11.9 9.49-18.9-9.21-34.5-16.5-50.7-7.94-13.6-15.9-27.1-23.8-40.7-18.8 10.3-37.4 20.9-56.1 31.3zm-3.89 48.1c-13.4 23-26.9 45.9-40.3 68.9 13.4 22.7 26.9 45.4 40.3 68.1v-36.9c16.8-.984 34.4 2.33 50.6-2.43 14.6-14.1 22-34.3 33.3-51.2 14.3-16.1-7.76-7.16-18.9-9.16-21.7-.13-43.4-.26-65-.389.0757-12.3.0405-24.6.0405-36.9zm-125-170c-13.4 22.7-26.9 45.4-40.3 68.1 20.6 5.14 50.7 44.6 63.3 18.9 6.98-22.3 39.3-44.5 30-67.2-8.04-13.9-15.2-35-35.4-31.5-7.38.62-14 5.27-17.5 11.7zm60.6 78.1h81c13.5-23 27-45.9 40.5-68.9-11 6.23-22 12.5-33 18.7-9.39-13.4-14.8-30.4-27.8-40.7-21.2-4.72-43.7-1.24-65.4-2.31-17.8-3.2 5.72 15 7.01 23.6 10.2 17.4 20.4 34.8 30.6 52.2-11 5.81-21.9 11.6-32.9 17.4zm-104 185c15.2 11.7 35.7 5.07 53.6 6.81h43.6v-63.3h-84.3c-7.96 17.3-31.3 37.8-13 56.5zm16-152h-81c11 6.23 22 12.5 33 18.7-7.42 14.7-19.7 27.6-22.7 44 4.85 19 18.6 34.6 27.4 52 7.08 20.4 10.9 1.3 18-9.07 11.1-18.8 22.2-37.6 33.2-56.3 10.8 6.37 21.6 12.7 32.4 19.1-13.4-22.8-26.9-45.6-40.3-68.4z" style="fill:none;opacity:.8;stroke:#ffffff;stroke-linecap:round;stroke-linejoin:round;stroke-opacity:.8;stroke-width:52.4"/>
 <path d="m282 28.9c-9.61.497 9.81 16.2 11 23.9 10.2 17.4 20.4 34.8 30.6 52.2-11 5.81-21.9 11.6-32.9 17.4h81c13.5-23 27-45.9 40.5-68.9-11 6.23-22 12.5-33 18.7-9.39-13.4-14.8-30.4-27.8-40.7-21.2-4.72-43.7-1.24-65.4-2.31-1.67-.3-2.97-.411-3.97-.359zm-30.7 3.34c-1.16.0314-2.38.152-3.64.367-7.38.62-14 5.27-17.5 11.7-13.4 22.7-26.9 45.4-40.3 68.1 20.6 5.14 50.7 44.6 63.3 18.9 6.98-22.3 39.3-44.5 30-67.2-7.53-13-14.3-32.4-31.8-31.9zm164 103c-18.8 10.3-37.4 20.9-56.1 31.3 16 22.9 27.5 53.8 46.1 72 17.1-1.62 39.5 5.91 50.3-11.9 9.49-18.9-9.21-34.5-16.5-50.7-7.94-13.6-15.9-27.1-23.8-40.7zm-293 21.1c11 6.23 22 12.5 33 18.7-7.42 14.7-19.7 27.6-22.7 44 4.85 19 18.6 34.6 27.4 52 7.08 20.4 10.9 1.3 17.9-9.07 11.1-18.8 22.2-37.6 33.2-56.3 10.8 6.37 21.6 12.7 32.4 19.1-13.4-22.8-26.9-45.6-40.3-68.4h-.002-81zm233 58.2c-13.4 23-26.9 45.9-40.3 68.9 13.4 22.7 26.9 45.4 40.3 68.1v-36.9c16.8-.984 34.4 2.33 50.6-2.43 14.6-14.1 22-34.3 33.3-51.2 14.3-16.1-7.76-7.16-18.9-9.16-21.7-.13-43.4-.259-65-.389.0757-12.3.0391-24.6.0391-36.9zm-155 37.1c-7.96 17.3-31.3 37.8-13 56.5v.002c15.2 11.7 35.7 5.07 53.6 6.81h43.6v-63.3h-84.3zm-71.8 117c-29.1 4.07-63.1 18.9-87 26.5v52.5c38-1.6 72.7-34.5 112-19.5 30.2 13.6 64.4 21.1 95.9 6.39 34.3-15.5 71.1-5.76 104 6.89 40.2 16.2 76.4-15.8 116-17.1 22.8-3.82 56.2 20.6 70.1 12.1v-51.1c-33.4-9.58-69.2-25.7-104-10-33 16.2-70.8 19.5-105 3.32-33.8-15.8-70-4.64-103 6.11-35 11.8-65.3-16.4-99.5-16.2h-.002zm2.56 104c-30.9 1.56-61.4 20.6-89.5 25v54.1c38-1.8 72.7-34.4 112-19.5 30.3 13.5 64.4 21 95.9 6.25 34.3-15.4 71.1-5.56 104 6.99 40.2 16.1 76.4-15.8 116-17.1 22.7-3.74 56.2 20.5 70.1 12v-50.9c-33.4-9.58-69.2-25.7-104-10.1-33 16.2-70.8 19.4-105 3.28-33.8-15.8-70-4.65-103 6.11-34.1 11.4-63.8-14.9-96.9-16.2z" opacity=".8"/>
</svg>
