<svg width="32" height="32" version="1.1" viewBox="0 0 32 32" xml:space="preserve" xmlns="http://www.w3.org/2000/svg">
<g transform="matrix(.068473 0 0 .068473 -2.862 -2.8609)"><path d="m280.1 70.974-86.686 25.464-71.516 98.605 7.585 19.504 49.844 252.47 28.715 8.6686-21.671-209.67 185.29-10.294 49.303-41.718 6.5014-21.671-66.64-93.729z" fill="#ffdcdd"/><path d="m275.21 163.9c-80.31 0-145.69 22.631-145.69 49.978l34.183 239.52c0 21.138 49.978 38.505 111.59 38.505 61.608 0 111.59-17.288 111.59-38.505l33.633-239.52c0.39291-27.818-64.986-49.978-145.3-49.978zm0 85.104c-42.355 0-80.31-6.2865-107.26-16.345l33.161 235.67c-5.265-1.4153-10.137-3.3798-14.459-5.265l-33.633-237.08c-4.7935-2.436-9.1154-5.265-12.494-8.1725 22.16-17.759 74.024-30.804 134.14-30.804 60.115 0 112.06 12.494 134.14 30.804-21.531 18.231-73.002 31.197-133.59 31.197zm152.45-57.207c-2.4368-3.379-5.265-6.758-8.644-9.1154-6.2865-5.265-13.909-9.5869-22.16-12.966-15.402-49.585-61.058-85.182-115.91-85.182h-11.001c-54.85 0-100.51 35.597-115.91 85.104-8.644 3.8505-15.873 7.701-22.16 12.966-3.379 2.9075-6.2865 5.7364-8.644 9.1154 6.758-74.574 69.23-132.72 145.69-132.72h12.966c76.067 0.07858 138.54 58.307 145.77 132.8z" fill="#00ceff" stroke="#0d3082" stroke-linejoin="round" stroke-width="6.8056" style="paint-order:stroke fill markers"/><circle cx="273.49" cy="334.54" r="58.417" fill="#e6460c"/></g>















</svg>
