<svg width="32" height="28" version="1.1" viewBox="0 0 32 28" xmlns="http://www.w3.org/2000/svg">
 <g>
  <g transform="translate(-49.006 -170.65)" fill="#ff0000" stroke="#ffffff" stroke-width="2">
   <path d="m65 175-10 5.9938v17.006h20v-16.911z"/>
   <path d="m65 172-.93126.608-13.069 8.128a1.8875 1.8865 0 101.8936 3.264l12.137-7.52 12.075 7.488a1.9013 1.9004 0 001.8936-3.296l-13.007-8.064z" color="#000000" style="text-decoration-line:none;text-indent:0;text-transform:none"/>
  </g>
  <g transform="translate(-49.005 -170.82)" fill="#ff0000">
   <path d="m65 175-10 5.9938v17.006h20v-16.911z"/>
   <path d="m65 172-.93126.608-13.069 8.128a1.8875 1.8865 0 101.8936 3.264l12.137-7.52 12.075 7.488a1.9013 1.9004 0 001.8936-3.296l-13.007-8.064z" color="#000000" style="text-decoration-line:none;text-indent:0;text-transform:none"/>
  </g>
  <path d="m16 6-6.9832 4.1116v13.993h13.901v-13.928z" fill="#ffcaca"/>
 </g>
 <g transform="translate(0,3)" fill="#ffff00">
  <g transform="translate(-125 -534.96)" stroke="#000000" stroke-width="2">
   <rect x="138" y="549" width="11" height="2" color="#000000"/>
   <rect x="145.93" y="550" width="2" height="3" color="#000000"/>
   <path transform="translate(0 -228.04)" d="m136 774c-2.2091 0-4 1.7909-4 4s1.7909 4 4 4 4-1.7909 4-4-1.7909-4-4-4zm0 2c1.1046 0 2 .89543 2 2s-.89543 2-2 2-2-.89543-2-2 .89543-2 2-2z" color="#000000"/>
  </g>
  <g transform="translate(-125,-535)">
   <rect x="138" y="549" width="11" height="2" color="#000000"/>
   <rect x="145.93" y="550" width="2" height="3" color="#000000"/>
   <path transform="translate(0 -228.04)" d="m136 774c-2.2091 0-4 1.7909-4 4s1.7909 4 4 4 4-1.7909 4-4-1.7909-4-4-4zm0 2c1.1046 0 2 .89543 2 2s-.89543 2-2 2-2-.89543-2-2 .89543-2 2-2z" color="#000000"/>
  </g>
 </g>
</svg>
