<svg enable-background="new 0 0 20 20" height="20" viewBox="0 0 20 20" width="20" xmlns="http://www.w3.org/2000/svg">
	<g clip-rule="evenodd" fill-rule="evenodd">
		<path d="m9.418 15.258c-.211-.191-.517-.418-.677-.543-1.141-.9-2.238-1.832-2.29-3.404-.016-.475.04-.948.161-1.405-1.336-1.037-2.14-2.641-2.14-4.367 0-3.052 2.475-5.527 5.527-5.527s5.526 2.475 5.526 5.527c0 2.832-2.131 5.168-4.877 5.489.207.18.471.375.615.49 1.166.918 2.29 1.875 2.29 3.492 0 .996-.347 1.961-.886 2.791-.527.811-1.449 1.738-2.377 2.068-1.062.379-2.231-.174-2.609-1.236-.371-1.039.153-2.182 1.173-2.584.134-.1.313-.342.396-.469.059-.088.124-.205.168-.322z" fill="#fff"/>
		<path d="m10 1.011c2.501 0 4.526 2.027 4.526 4.528 0 2.5-2.025 4.527-4.526 4.527-.044 0-.089-.002-.132-.002-.167.238-.36.631-.343 1.147.007.213.563.652 1.12 1.09.955.754 1.91 1.508 1.91 2.709 0 .822-.307 1.604-.725 2.246-.543.836-1.334 1.479-1.877 1.672-.541.193-1.136-.088-1.33-.631-.193-.541.089-1.137.631-1.33.197-.07.539-.387.834-.842.22-.34.382-.732.382-1.115 0-.203-.555-.643-1.111-1.08-.935-.738-1.871-1.477-1.91-2.652-.022-.698.146-1.296.368-1.773-1.398-.771-2.344-2.257-2.344-3.966 0-2.501 2.027-4.528 4.527-4.528z" fill="#0064ff"/>
	</g>
</svg>
