<?xml version="1.0" encoding="UTF-8" standalone="no"?>
<!-- Generator: Adobe Illustrator 16.0.0, SVG Export Plug-In . SVG Version: 6.00 Build 0)  -->

<svg
   xmlns:dc="http://purl.org/dc/elements/1.1/"
   xmlns:cc="http://creativecommons.org/ns#"
   xmlns:rdf="http://www.w3.org/1999/02/22-rdf-syntax-ns#"
   xmlns:svg="http://www.w3.org/2000/svg"
   xmlns="http://www.w3.org/2000/svg"
   xmlns:sodipodi="http://sodipodi.sourceforge.net/DTD/sodipodi-0.dtd"
   xmlns:inkscape="http://www.inkscape.org/namespaces/inkscape"
   version="1.1"
   id="Layer_1"
   x="0px"
   y="0px"
   width="20px"
   height="20px"
   viewBox="0 0 20 20"
   enable-background="new 0 0 20 20"
   xml:space="preserve"
   inkscape:version="0.91 r13725"
   sodipodi:docname="spring.svg"><metadata
     id="metadata11"><rdf:RDF><cc:Work
         rdf:about=""><dc:format>image/svg+xml</dc:format><dc:type
           rdf:resource="http://purl.org/dc/dcmitype/StillImage" /></cc:Work></rdf:RDF></metadata><defs
     id="defs9" /><sodipodi:namedview
     pagecolor="#ffffff"
     bordercolor="#666666"
     borderopacity="1"
     objecttolerance="10"
     gridtolerance="10"
     guidetolerance="10"
     inkscape:pageopacity="0"
     inkscape:pageshadow="2"
     inkscape:window-width="916"
     inkscape:window-height="571"
     id="namedview7"
     showgrid="false"
     inkscape:zoom="11.8"
     inkscape:cx="10"
     inkscape:cy="10"
     inkscape:window-x="0"
     inkscape:window-y="0"
     inkscape:window-maximized="0"
     inkscape:current-layer="Layer_1" /><path
     fill-rule="evenodd"
     clip-rule="evenodd"
     fill="#FFFFFF"
     d="M9.418,15.258c-0.211-0.191-0.517-0.418-0.677-0.543  c-1.141-0.9-2.238-1.832-2.29-3.404c-0.016-0.475,0.04-0.948,0.161-1.405c-1.336-1.037-2.14-2.641-2.14-4.367  c0-3.052,2.475-5.527,5.527-5.527c3.052,0,5.526,2.475,5.526,5.527c0,2.832-2.131,5.168-4.877,5.489  c0.207,0.18,0.471,0.375,0.615,0.49c1.166,0.918,2.29,1.875,2.29,3.492c0,0.996-0.347,1.961-0.886,2.791  c-0.527,0.811-1.449,1.738-2.377,2.068c-1.062,0.379-2.231-0.174-2.609-1.236c-0.371-1.039,0.153-2.182,1.173-2.584  c0.134-0.1,0.313-0.342,0.396-0.469C9.309,15.492,9.374,15.375,9.418,15.258z"
     id="path3" /><path
     fill-rule="evenodd"
     clip-rule="evenodd"
     fill="#3762AD"
     d="M10,1.011c2.501,0,4.526,2.027,4.526,4.528  c0,2.5-2.025,4.527-4.526,4.527c-0.044,0-0.089-0.002-0.132-0.002c-0.167,0.238-0.36,0.631-0.343,1.147  c0.007,0.213,0.563,0.652,1.12,1.09c0.955,0.754,1.91,1.508,1.91,2.709c0,0.822-0.307,1.604-0.725,2.246  c-0.543,0.836-1.334,1.479-1.877,1.672c-0.541,0.193-1.136-0.088-1.33-0.631c-0.193-0.541,0.089-1.137,0.631-1.33  c0.197-0.07,0.539-0.387,0.834-0.842c0.22-0.34,0.382-0.732,0.382-1.115c0-0.203-0.555-0.643-1.111-1.08  c-0.935-0.738-1.871-1.477-1.91-2.652C7.427,10.58,7.595,9.982,7.817,9.505C6.419,8.734,5.473,7.248,5.473,5.539  C5.473,3.038,7.5,1.011,10,1.011z"
     id="path5"
     style="fill:#0064ff;fill-opacity:1" /></svg>