<svg xmlns="http://www.w3.org/2000/svg" width="20" height="20"><path fill-rule="evenodd" clip-rule="evenodd" fill="#FFF" d="M9.418 15.258c-.211-.191-.517-.418-.677-.543-1.141-.9-2.238-1.832-2.29-3.404-.016-.475.04-.948.161-1.405a5.527 5.527 0 114.036 1.122c.207.18.471.375.615.49 1.166.918 2.29 1.875 2.29 3.492 0 .996-.347 1.961-.886 2.791-.527.811-1.449 1.738-2.377 2.068a2.04 2.04 0 01-1.436-3.82c.134-.1.313-.342.396-.469.059-.088.124-.205.168-.322z"/><path fill-rule="evenodd" clip-rule="evenodd" fill="#0064ff" d="M10 1.011a4.526 4.526 0 014.526 4.528c0 2.5-2.025 4.527-4.526 4.527l-.132-.002c-.167.238-.36.631-.343 1.147.007.213.563.652 1.12 1.09.955.754 1.91 1.508 1.91 2.709 0 .822-.307 1.604-.725 2.246-.543.836-1.334 1.479-1.877 1.672a1.04 1.04 0 11-.699-1.961c.197-.07.539-.387.834-.842.22-.34.382-.732.382-1.115 0-.203-.555-.643-1.111-1.08-.935-.738-1.871-1.477-1.91-2.652a3.886 3.886 0 01.368-1.773A4.527 4.527 0 0110 1.011z"/></svg>