<?xml version="1.0" encoding="UTF-8"?>
<svg width="580" height="580" version="1.0" xmlns="http://www.w3.org/2000/svg" xmlns:cc="http://creativecommons.org/ns#" xmlns:dc="http://purl.org/dc/elements/1.1/" xmlns:rdf="http://www.w3.org/1999/02/22-rdf-syntax-ns#">
 <path d="m495.94 318.4c5.07 133.47-140.75 240.75-266.64 196.63-128.93-34.63-188.55-205.58-109.05-312.84 71.18-112.98 252.1-119.38 331.09-11.73 28.73 36.02 44.71 81.87 44.6 127.94z" fill="#bbd9ec" stroke="#1279FF" stroke-linecap="round" stroke-linejoin="round" stroke-width="41.539"/>
 <path d="m495.94 318.4c5.07 133.47-140.75 240.75-266.64 196.63-128.93-34.63-188.55-205.58-109.05-312.84 71.18-112.98 252.1-119.38 331.09-11.73 28.73 36.02 44.71 81.87 44.6 127.94z" fill="none" filter="url(#filter819)" stroke="#0073be" stroke-linecap="round" stroke-linejoin="round" stroke-opacity="0" stroke-width="41.539"/>
 <polygon transform="matrix(7.0728 0 0 7.0728 119.65 138.22)" points="17.488 28.418 24 39.119 30.513 28.418 32.765 34.896 30.442 34.896 30.442 38.836 46 38.836 46 34.896 42.974 34.896 32.693 8.881 24 24.088 15.341 8.881 5.027 34.896 2 34.896 2 38.836 17.558 38.836 17.558 34.896 15.235 34.896" fill="#ff0013" stroke="#fff"/>
</svg>
