<svg width="580" height="580" version="1.0" xmlns="http://www.w3.org/2000/svg"><path d="M495.94 318.4c5.07 133.47-140.75 240.75-266.64 196.63C100.37 480.4 40.75 309.45 120.25 202.19c71.18-112.98 252.1-119.38 331.09-11.73 28.73 36.02 44.71 81.87 44.6 127.94z" fill="#bbd9ec" stroke="#1279FF" stroke-linecap="round" stroke-linejoin="round" stroke-width="41.539"/><path d="M495.94 318.4c5.07 133.47-140.75 240.75-266.64 196.63C100.37 480.4 40.75 309.45 120.25 202.19c71.18-112.98 252.1-119.38 331.09-11.73 28.73 36.02 44.71 81.87 44.6 127.94z" fill="none" filter="url(#prefix__filter819)"/><path fill="#ff0013" stroke="#fff" d="M243.34 339.215l46.057 75.686 46.065-75.686 15.928 45.817h-16.43V412.9H445v-27.867h-21.402L350.88 201.034 289.397 308.59l-61.243-107.556-72.949 183.998h-21.41V412.9h110.04v-27.867h-16.43z" stroke-width="7.0728"/></svg>