<svg xmlns="http://www.w3.org/2000/svg" width="24" height="24"><path d="M3.62 8H5v7h2V8h4v2h2V8h4v7h2V8h1.61c.55 0 1-.44 1-1a.86.86 0 00-.05-.32L19 2H5L2.72 6.55A.998.998 0 003.62 8m2.62-4h11.52l1 2H5.24l1-2M2 16v2h2v4h16v-4h2v-2H2m16 4H6v-2h12v2m-4.07-9c.28 0 .5.22.5.5v.06l-.38 3c-.05.25-.24.44-.49.44h-3.12c-.25 0-.44-.19-.49-.44l-.38-3A.51.51 0 0110 11H13.93z" fill="#00ceff"/><path d="M10.21 14.74c-.058-.07-.203-.86-.322-1.752-.204-1.539-.206-1.632-.04-1.754.129-.094.713-.129 2.133-.129 1.075 0 2.027.028 2.116.062.202.078.203.35.004 1.968-.234 1.902-.032 1.733-2.066 1.733-1.257 0-1.747-.035-1.825-.128z" fill="#fe4c00" stroke="red" stroke-width=".5"/></svg>