<svg version="1.1" viewBox="0 0 24 24" xmlns="http://www.w3.org/2000/svg">
 <path d="m4.93 3 .102 14.6.0508 2.95 13.9-.102-.0169-5.44-.186-12.3z" fill="#d9ffd9" fill-opacity=".986" stroke-width="0"/>
 <path d="m3.62 8h1.38v7h2v-7h4v2h2v-2h4v7h2v-7h1.61c.55 0 1-.44 1-1 0-.11-.01-.22-.05-.32l-2.56-4.68h-14l-2.28 4.55c-.25.49-.05 1.09.44 1.34.15.07.3.11.46.11m2.62-4h11.5l1 2h-13.5l1-2m-4.24 12v2h2v4h16v-4h2v-2h-20m16 4h-12v-2h12v2m-4.07-9c.28 0 .5.22.5.5v.06l-.38 3c-.05.25-.24.44-.49.44h-3.12c-.25 0-.44-.19-.49-.44l-.38-3c-.03-.27.16-.52.43-.56h.07 3.86z" fill="#0cabef" stroke="#0029e3" stroke-width=".2"/>
</svg>
